<svg width="68" height="68" viewBox="0 0 68 68" fill="none" xmlns="http://www.w3.org/2000/svg">
<circle cx="34" cy="34" r="34" fill="#FF386B"/>
<g clip-path="url(#clip0_47_11555)">
<path d="M19 24V42.4532H27.9442C28.7709 42.4532 29.579 42.3493 30.3564 42.1433C31.1424 41.9365 31.8445 41.6179 32.4554 41.1856C33.0616 40.7568 33.5534 40.2006 33.915 39.5145C34.2728 38.837 34.4517 38.0308 34.4517 37.0953C34.4517 35.9413 34.178 34.9566 33.6174 34.134C33.0599 33.3162 32.219 32.7416 31.0831 32.4158C31.9174 32.0206 32.5404 31.5124 32.9656 30.8936C33.387 30.2728 33.5979 29.4969 33.5979 28.5677C33.5979 27.7086 33.457 26.9831 33.176 26.403C32.8878 25.8144 32.486 25.3465 31.972 24.9947C31.45 24.6437 30.832 24.3876 30.108 24.2341C29.3796 24.0765 28.583 24.0001 27.7 24.0001L19 24ZM38.5843 25.2379V27.0588H46.0648V25.2379H38.5843ZM23.0636 27.1429H26.8645C27.2236 27.1429 27.5749 27.1684 27.9094 27.2342C28.2504 27.2925 28.5444 27.4017 28.8044 27.5586C29.0664 27.7092 29.2736 27.9249 29.4306 28.2001C29.5816 28.4755 29.6564 28.8299 29.6564 29.2594C29.6564 30.033 29.43 30.5971 28.9625 30.9376C28.4902 31.2845 27.8946 31.456 27.1745 31.456H23.0636V27.1429ZM42.4949 28.7134C41.4711 28.7134 40.5465 28.8961 39.7081 29.2584C38.87 29.6214 38.1502 30.1178 37.5434 30.7478C36.9376 31.3741 36.4765 32.121 36.1434 32.9864C35.8169 33.8489 35.6506 34.7821 35.6506 35.7814C35.6506 36.8149 35.8111 37.7677 36.13 38.6296C36.4525 39.495 36.9048 40.2324 37.487 40.8559C38.0845 41.4767 38.7945 41.9539 39.6445 42.293C40.4953 42.6292 41.4423 42.799 42.4949 42.799C44.0049 42.799 45.3006 42.4526 46.3635 41.7583C47.4384 41.0673 48.2263 39.9195 48.7458 38.3115H45.5145C45.3895 38.7249 45.0658 39.1228 44.5345 39.4949C43.9976 39.8684 43.3574 40.0564 42.617 40.0564C41.5879 40.0564 40.7935 39.7854 40.2439 39.2486C39.6924 38.7119 39.3355 37.7125 39.3355 36.6559H48.9767C49.0457 35.6195 48.9615 34.6286 48.7211 33.6812C48.4789 32.7311 48.092 31.8856 47.547 31.145C47.0026 30.4036 46.309 29.8116 45.4633 29.3744C44.6148 28.9315 43.6254 28.7134 42.4949 28.7134V28.7134ZM42.384 31.4846C43.2851 31.4846 44.0248 31.7461 44.4605 32.2289C44.8984 32.7151 45.2186 33.4079 45.3063 34.3433H39.3355C39.3525 34.0826 39.408 33.7877 39.5029 33.4626C39.5965 33.1291 39.7578 32.8171 39.9945 32.5214C40.2326 32.2306 40.5448 31.9826 40.9245 31.7844C41.3131 31.5834 41.7977 31.4847 42.384 31.4847V31.4846ZM23.0637 34.2295H27.4805C28.355 34.2295 29.0658 34.4298 29.599 34.834C30.1314 35.244 30.3996 35.9196 30.3996 36.8705C30.3996 37.3561 30.3206 37.7573 30.1564 38.0663C29.9926 38.3781 29.7681 38.6245 29.4964 38.8032C29.2249 38.9896 28.9023 39.1155 28.5388 39.1954C28.181 39.2752 27.8006 39.3104 27.3994 39.3104H23.0636L23.0637 34.2295Z" fill="white"/>
</g>
<defs>
<clipPath id="clip0_47_11555">
<rect width="30" height="30" fill="white" transform="translate(19 19)"/>
</clipPath>
</defs>
</svg>
