<svg width="68" height="68" viewBox="0 0 68 68" fill="none" xmlns="http://www.w3.org/2000/svg">
<circle cx="34" cy="34" r="34" fill="#FF386B"/>
<path fill-rule="evenodd" clip-rule="evenodd" d="M34 18C25.7191 18 19 24.7191 19 33C19 41.2809 25.7191 48 34 48C42.2646 48 49 41.2809 49 33C49 24.7191 42.2646 18 34 18ZM43.9078 24.9143C45.6974 27.0944 46.7712 29.8763 46.8037 32.8861C46.3807 32.8048 42.1507 31.9425 37.8883 32.4794C37.7907 32.2679 37.7093 32.0401 37.6117 31.8124C37.3514 31.1942 37.0586 30.5597 36.7657 29.9577C41.4837 28.038 43.6312 25.2722 43.9078 24.9143ZM34 20.2126C37.2538 20.2126 40.231 21.4328 42.4924 23.4338C42.2646 23.7592 40.3286 26.346 35.7733 28.0542C33.6746 24.1985 31.3482 21.0423 30.9903 20.5542C31.9501 20.3265 32.9588 20.2126 34 20.2126ZM28.5499 21.4165C28.8916 21.872 31.1692 25.0445 33.3004 28.8188C27.3135 30.4133 22.026 30.3807 21.4566 30.3807C22.2863 26.4111 24.9707 23.1085 28.5499 21.4165ZM21.18 33.0163C21.18 32.8861 21.18 32.756 21.18 32.6258C21.7332 32.6421 27.9479 32.7234 34.3416 30.8037C34.7159 31.5195 35.0575 32.2516 35.3829 32.9837C35.2202 33.0325 35.0412 33.0814 34.8785 33.1301C28.2733 35.2613 24.7592 41.0857 24.4664 41.5737C22.4328 39.3124 21.18 36.3026 21.18 33.0163ZM34 45.8199C31.039 45.8199 28.3059 44.8113 26.1421 43.1193C26.3698 42.6475 28.9728 37.6367 36.1963 35.115C36.2288 35.0987 36.2451 35.0987 36.2777 35.0825C38.0835 39.7516 38.8157 43.6724 39.0108 44.795C37.4653 45.462 35.7733 45.8199 34 45.8199ZM41.1421 43.6237C41.0119 42.8427 40.3286 39.1009 38.6529 34.4967C42.6714 33.8622 46.1854 34.9035 46.6248 35.0499C46.0716 38.6128 44.0217 41.6876 41.1421 43.6237Z" fill="white"/>
</svg>
