<svg width="686" height="741" viewBox="0 0 686 741" fill="none" xmlns="http://www.w3.org/2000/svg">
<g id="heartgirl">
<path id="Vector" d="M296.629 238.364C296.115 233.23 294.444 228.279 291.741 223.884C289.037 219.488 285.373 215.764 281.022 212.989C276.671 210.215 271.748 208.464 266.623 207.867C261.498 207.27 256.304 207.843 251.432 209.543L253.906 209.795C242.811 212.015 232.952 218.313 226.275 227.447C223.014 232.013 220.772 237.227 219.702 242.735C218.631 248.243 218.758 253.917 220.072 259.372C222.876 270.206 231.153 279.605 241.746 283.211C247.637 285.216 253.96 285.461 260.18 285.673C264.217 285.81 268.328 285.933 272.22 284.851C277.227 283.3 281.628 280.232 284.815 276.071C287.972 271.925 290.484 267.326 292.265 262.429C295.282 254.771 297.448 246.554 296.629 238.364Z" fill="#2F2E41"/>
<path id="Vector_2" d="M384.589 737.501C375.793 704.421 395.326 672.178 418.149 649.857C430.313 637.961 443.859 627.62 457.068 616.939C469.744 606.801 481.815 595.93 493.219 584.381C515.241 561.842 534.451 536.083 547.172 507.127C559.269 479.593 564.987 449.598 562.155 419.555C559.469 391.061 549.255 363.032 530.467 341.171C528.126 338.447 525.664 335.836 523.079 333.338C521.693 331.992 519.57 334.111 520.958 335.459C541.938 355.83 554.149 383.438 558.282 412.158C562.544 441.777 558.152 471.973 547.077 499.664C535.278 529.163 516.517 555.485 494.759 578.455C483.801 589.949 472.145 600.756 459.856 610.814C446.732 621.625 433.095 631.84 420.598 643.393C397.566 664.685 376.866 693.974 379.71 726.944C380.041 730.779 380.706 734.579 381.696 738.299C381.812 738.67 382.068 738.982 382.41 739.168C382.752 739.354 383.152 739.401 383.527 739.297C383.903 739.194 384.223 738.949 384.421 738.614C384.619 738.279 384.679 737.88 384.589 737.501Z" fill="#D8D3F3"/>
<path id="Vector_3" d="M476.698 549.176C462.837 525.414 452.237 499.895 445.182 473.305C438.105 446.723 434.565 419.323 434.654 391.814C434.755 364.307 438.095 336.111 446.622 309.879C454.716 284.984 469.216 261.242 492.238 247.656C503.979 240.769 517.382 237.23 530.992 237.422C545.368 237.558 559.544 241.342 572.497 247.469C585.182 253.47 596.782 261.556 607.497 270.571C617.714 279.151 627.248 288.513 636.012 298.572C653.379 318.542 667.567 341.665 675.491 367.019C683.75 393.441 685.197 422.342 677.533 449.083C670.171 474.768 654.044 496.66 634.245 514.246C612.849 533.251 587.503 547.062 561.946 559.596C555.549 562.734 549.118 565.799 542.686 568.865C540.944 569.695 542.465 572.282 544.2 571.455C571.15 558.611 598.365 545.655 622.388 527.723C643.585 511.901 662.48 492.038 673.72 467.844C685.607 442.258 688.043 413.166 683.116 385.561C678.301 358.583 666.222 333.333 650.055 311.342C642.022 300.463 633.094 290.273 623.364 280.88C613.382 271.023 602.482 262.139 590.814 254.351C566.895 238.717 536.984 229.276 508.638 237.329C483.438 244.488 464.043 264.68 452.502 287.562C446.043 300.37 441.689 314.144 438.592 328.12C435.57 341.894 433.538 355.866 432.512 369.93C428.393 426.049 439.392 482.246 464.365 532.672C467.407 538.787 470.654 544.793 474.107 550.691C474.315 551.02 474.642 551.255 475.021 551.347C475.399 551.44 475.798 551.382 476.134 551.185C476.47 550.989 476.717 550.669 476.822 550.295C476.927 549.92 476.882 549.519 476.698 549.176Z" fill="#D8D3F3"/>
<path id="Vector_4" d="M457.698 520.176C443.837 496.414 433.237 470.895 426.182 444.305C419.105 417.723 415.565 390.323 415.654 362.814C415.755 335.307 419.095 307.111 427.622 280.879C435.716 255.984 450.216 232.242 473.238 218.656C484.979 211.769 498.382 208.23 511.992 208.422C526.368 208.558 540.544 212.342 553.497 218.469C566.182 224.47 577.782 232.556 588.497 241.571C598.714 250.151 608.248 259.513 617.012 269.572C634.379 289.542 648.567 312.665 656.491 338.019C664.75 364.441 666.197 393.342 658.533 420.083C651.171 445.768 635.044 467.66 615.245 485.246C593.849 504.251 568.503 518.062 542.946 530.596C536.549 533.734 530.118 536.799 523.686 539.865C521.944 540.695 523.465 543.282 525.2 542.455C552.15 529.611 579.365 516.655 603.388 498.723C624.585 482.901 643.48 463.038 654.72 438.844C666.607 413.258 669.043 384.166 664.116 356.561C659.301 329.583 647.222 304.333 631.055 282.342C623.022 271.463 614.094 261.273 604.364 251.88C594.382 242.023 583.482 233.139 571.814 225.351C547.895 209.717 517.984 200.276 489.638 208.329C464.438 215.488 445.043 235.68 433.502 258.562C427.043 271.37 422.689 285.144 419.592 299.12C416.57 312.894 414.538 326.866 413.512 340.93C409.393 397.049 420.392 453.246 445.365 503.672C448.407 509.787 451.654 515.793 455.107 521.691C455.315 522.02 455.642 522.255 456.021 522.347C456.399 522.44 456.798 522.382 457.134 522.185C457.47 521.989 457.717 521.669 457.822 521.295C457.927 520.92 457.882 520.519 457.698 520.176Z" fill="#D8D3F3"/>
<g id="lefthand">
<path id="Vector_5" d="M184.595 463.956C183.536 462.463 182.818 460.757 182.491 458.957C182.164 457.157 182.235 455.307 182.7 453.538C183.164 451.769 184.012 450.123 185.181 448.716C186.351 447.309 187.815 446.176 189.47 445.397L224.146 336.821L248.297 349.367L206.617 452.148C207.743 455.015 207.777 458.195 206.714 461.086C205.651 463.977 203.565 466.378 200.851 467.833C198.136 469.289 194.982 469.698 191.986 468.983C188.99 468.269 186.36 466.48 184.595 463.956Z" fill="#FFB6B6"/>
<path id="Vector_6" d="M212.924 351.836C212.592 351.101 212.423 350.303 212.427 349.497C212.432 348.69 212.61 347.895 212.95 347.163L224.827 321.628C225.999 317.673 228.691 314.344 232.314 312.371C235.936 310.397 240.193 309.941 244.152 311.101C248.11 312.261 251.447 314.944 253.431 318.56C255.415 322.177 255.884 326.433 254.735 330.394L250.766 358.368C250.652 359.166 250.368 359.93 249.933 360.609C249.497 361.288 248.921 361.864 248.242 362.3C247.564 362.736 246.8 363.02 246.001 363.134C245.203 363.248 244.39 363.188 243.616 362.959L216.445 354.908C215.671 354.68 214.957 354.287 214.349 353.756C213.741 353.226 213.255 352.571 212.924 351.836Z" fill="#2F2E41"/>
</g>
<path id="Vector_7" d="M313.102 356.145C304.85 377.754 306.958 400.42 317.122 423.907H245.122C248.016 407.196 246.842 391.666 236.122 378.907L313.102 356.145Z" fill="#FFB6B6"/>
<path id="Vector_8" d="M228.836 316.433L250.145 300.936L285.014 291.25L314.071 297.062L315.779 313.118C317.857 332.649 316.954 352.382 313.102 371.642L237.554 389.076L229.805 375.516C229.805 375.516 212.371 358.082 225.931 338.711L228.836 316.433Z" fill="#2F2E41"/>
<g id="righthand">
<path id="Vector_9" d="M413.912 208.036C414.388 209.803 414.47 211.652 414.154 213.454C413.837 215.256 413.13 216.966 412.081 218.465C411.031 219.964 409.667 221.215 408.082 222.129C406.497 223.043 404.731 223.599 402.909 223.757L332.764 313.594L314.455 293.458L389.163 211.483C389.1 208.403 390.17 205.408 392.168 203.064C394.167 200.721 396.956 199.191 400.007 198.767C403.057 198.342 406.158 199.051 408.721 200.759C411.284 202.468 413.131 205.057 413.912 208.036Z" fill="#FFB6B6"/>
<path id="Vector_10" d="M348.493 303.398C348.549 304.202 348.432 305.009 348.148 305.764C347.865 306.519 347.422 307.203 346.849 307.771L326.861 327.61C324.392 330.915 320.713 333.106 316.631 333.702C312.549 334.299 308.397 333.252 305.085 330.792C301.773 328.332 299.572 324.659 298.964 320.579C298.357 316.498 299.392 312.344 301.842 309.025L315.258 284.16C315.64 283.45 316.172 282.831 316.815 282.346C317.459 281.86 318.2 281.518 318.987 281.345C319.775 281.171 320.59 281.169 321.378 281.339C322.167 281.509 322.909 281.847 323.555 282.33L346.254 299.295C346.901 299.778 347.435 300.394 347.821 301.102C348.208 301.81 348.437 302.593 348.493 303.398Z" fill="#2F2E41"/>
</g>
<path id="Vector_11" d="M228.931 717.837H239.964L245.213 675.28H228.929L228.931 717.837Z" fill="#FFB6B6"/>
<path id="Vector_12" d="M225.194 712.395L242.636 711.354V718.826L259.218 730.278C260.037 730.844 260.654 731.656 260.978 732.597C261.303 733.538 261.318 734.558 261.022 735.508C260.726 736.459 260.134 737.289 259.332 737.879C258.53 738.469 257.561 738.787 256.565 738.787H235.801L232.222 731.396L230.824 738.787H222.995L225.194 712.395Z" fill="#2F2E41"/>
<path id="Vector_13" d="M306.931 717.837H317.964L323.213 675.28H306.929L306.931 717.837Z" fill="#FFB6B6"/>
<path id="Vector_14" d="M303.194 712.395L320.636 711.354V718.826L337.218 730.278C338.037 730.844 338.654 731.656 338.978 732.597C339.303 733.538 339.318 734.558 339.022 735.508C338.726 736.459 338.134 737.289 337.332 737.879C336.53 738.469 335.561 738.787 334.565 738.787H313.801L310.222 731.396L308.824 738.787H300.995L303.194 712.395Z" fill="#2F2E41"/>
<path id="Vector_15" d="M336.242 479.397V501.097L334.122 527.607C334.122 527.607 333.452 550.757 332.642 569.017C332.153 580.117 331.602 589.407 331.122 590.607C330.532 592.077 330.672 596.087 331.012 600.297C331.412 605.167 332.073 610.307 332.182 612.027C332.392 615.237 330.692 629.027 330.692 629.027C330.692 629.027 328.792 663.607 326.032 666.367C323.272 669.127 326.032 676.977 326.032 676.977C313.093 686.517 296.752 674.857 296.752 674.857C300.363 669.107 294.632 629.857 294.632 629.857C294.632 629.857 293.792 616.457 292.093 612.857C290.392 609.257 289.962 586.767 289.962 586.767V553.457C289.962 553.457 285.502 546.637 284.872 543.457C284.242 540.277 284.872 529.037 284.872 529.037L280.212 513.337L277.022 525.637C277.022 525.637 268.762 560.007 267.272 564.247C265.782 568.487 268.113 572.737 268.113 572.737C268.113 572.737 270.242 579.277 268.113 582.277C266.789 584.157 265.776 586.237 265.113 588.437C265.113 588.437 264.022 600.957 262.113 605.437C260.202 609.917 258.512 615.437 258.512 615.437C258.512 615.437 258.962 623.897 257.052 625.807C255.142 627.717 254.512 637.267 254.512 637.267C254.512 637.267 254.932 648.077 252.382 651.897C249.832 655.717 249.832 677.357 249.832 677.357C245.41 680.195 240.314 681.808 235.064 682.031C229.814 682.254 224.599 681.08 219.952 678.627C219.952 678.627 222.472 676.267 220.562 665.267C218.653 654.267 221.932 624.317 221.932 624.317C221.932 624.317 221.512 616.717 223.632 613.317C225.752 609.917 222.562 603.347 223.412 600.377C224.262 597.407 226.812 581.277 226.812 581.277C226.812 581.277 225.752 541.607 225.752 539.487C225.501 535.714 224.48 532.031 222.752 528.667C220.843 525.277 222.752 500.667 222.752 500.667C222.752 500.667 227.252 487.947 225.752 485.187C224.252 482.427 226.752 477.547 226.752 477.547C226.752 477.547 224.422 471.817 226.752 470.757C229.082 469.697 229.512 465.457 229.512 465.457L231.132 444.877C231.132 444.877 231.742 435.537 233.682 435.117C235.622 434.697 234.772 431.097 236.682 428.547C237.613 426.823 238.255 424.959 238.582 423.027C238.852 421.847 239.102 420.617 239.312 419.437C239.912 416.237 240.283 413.477 240.283 413.477C252.803 423.877 318.632 416.587 318.702 416.587C322.882 417.497 327.852 432.007 331.442 444.657C334.634 455.961 336.249 467.652 336.242 479.397Z" fill="#2F2E41"/>
<path id="Vector_16" d="M288.36 263.944C293.158 248.16 284.252 231.474 268.468 226.676C252.683 221.877 235.998 230.783 231.199 246.568C226.401 262.352 235.307 279.038 251.091 283.836C266.876 288.635 283.561 279.729 288.36 263.944Z" fill="#FFB6B6"/>
<path id="Vector_17" d="M226.016 260.462L237.583 258.055L239.712 242.705L243.706 256.781L249.235 255.631L250.477 246.676L252.807 254.887L293.887 246.34C293.041 242.274 291.402 238.415 289.065 234.983C286.727 231.55 283.737 228.612 280.264 226.335C276.791 224.059 272.904 222.488 268.824 221.714C264.744 220.94 260.552 220.977 256.486 221.823L250.532 223.062C242.322 224.77 235.126 229.67 230.528 236.684C225.93 243.698 224.307 252.251 226.016 260.462Z" fill="#2F2E41"/>
<path id="smallheart" d="M446.7 695.054L446.681 695.091C442.868 693.334 438.525 693.112 434.553 694.469C430.58 695.827 427.282 698.661 425.342 702.384C423.401 706.106 422.968 710.433 424.13 714.467C425.293 718.501 427.963 721.933 431.587 724.052L431.567 724.089L460.603 739.222L475.735 710.187C476.732 708.28 477.342 706.196 477.533 704.053C477.723 701.91 477.489 699.75 476.844 697.698C476.199 695.646 475.156 693.74 473.775 692.091C472.393 690.442 470.7 689.082 468.792 688.087C466.884 687.093 464.799 686.484 462.656 686.296C460.513 686.109 458.354 686.345 456.302 686.992C454.25 687.639 452.346 688.684 450.699 690.067C449.051 691.451 447.692 693.145 446.7 695.054Z" fill="#FF6584"/>
<path id="Vector_18" d="M665.257 740.814H17.9634C17.6476 740.814 17.3448 740.689 17.1215 740.466C16.8982 740.242 16.7727 739.94 16.7727 739.624C16.7727 739.308 16.8982 739.005 17.1215 738.782C17.3448 738.559 17.6476 738.433 17.9634 738.433H665.257C665.573 738.433 665.876 738.559 666.099 738.782C666.323 739.005 666.448 739.308 666.448 739.624C666.448 739.94 666.323 740.242 666.099 740.466C665.876 740.689 665.573 740.814 665.257 740.814Z" fill="#CACACA"/>
<path id="Vector_19" d="M562.199 449.281C575.43 449.198 588.223 444.528 598.397 436.068C608.754 427.358 615.57 415.163 617.562 401.779C618.732 394.212 618.355 386.486 616.454 379.069C616.338 378.698 616.082 378.387 615.74 378.2C615.398 378.014 614.998 377.968 614.623 378.071C614.248 378.175 613.927 378.42 613.729 378.755C613.531 379.09 613.471 379.489 613.561 379.867C616.768 392.46 615.321 405.788 609.487 417.4C605.005 426.083 598.225 433.368 589.886 438.461C581.547 443.554 571.97 446.259 562.199 446.281C561.81 446.295 561.441 446.459 561.171 446.738C560.901 447.018 560.75 447.392 560.75 447.781C560.75 448.17 560.901 448.544 561.171 448.824C561.441 449.104 561.81 449.268 562.199 449.281Z" fill="#D8D3F3"/>
<g id="rightheart">
<path id="Vector_20" d="M344.351 35.8491L344.275 35.9949C329.189 29.0448 312.008 28.1643 296.291 33.5358C280.574 38.9073 267.525 50.1192 259.848 64.8486C252.171 79.578 250.455 96.696 255.054 112.656C259.654 128.617 270.217 142.196 284.555 150.581L284.479 150.727L399.357 210.599L459.229 95.7216C463.17 88.1777 465.586 79.9311 466.338 71.4531C467.09 62.9752 466.164 54.4321 463.612 46.3122C461.061 38.1924 456.934 30.655 451.468 24.131C446.002 17.607 439.303 12.2243 431.756 8.29058C424.208 4.35685 415.959 1.94923 407.48 1.20537C399.002 0.46151 390.459 1.39598 382.342 3.95538C374.225 6.51477 366.691 10.6489 360.173 16.1214C353.654 21.594 348.278 28.2976 344.351 35.8491Z" fill="#FFBCD9"/>
<path id="Vector_21" d="M330.55 59.622C322.015 51.5194 308.537 51.5406 298.679 57.1812C287.617 63.5111 282.602 76.5911 282.855 88.8722C283.141 102.694 289.899 115.209 298.625 125.575C307.925 136.345 318.748 145.7 330.75 153.344C342.72 161.14 355.672 167.312 369.266 171.699C370.939 172.238 372.621 172.749 374.311 173.232C374.69 173.323 375.089 173.263 375.424 173.065C375.758 172.867 376.004 172.546 376.107 172.171C376.21 171.796 376.164 171.395 375.978 171.054C375.792 170.712 375.48 170.456 375.109 170.34C349.003 162.88 325.269 148.798 306.21 129.46C297.137 120.168 289.074 108.999 286.594 96.0003C284.404 84.5206 286.824 71.1916 295.722 63.0145C304.371 55.0657 319.509 53.2759 328.429 61.7434C329.829 63.0724 331.954 60.9545 330.55 59.622Z" fill="white"/>
</g>
<g id="leftheart">
<path id="Vector_22" d="M61.5334 326.899V327.064C44.9433 327.873 29.3002 335.033 17.845 347.06C6.38972 359.088 0.000236428 375.061 0.000244141 391.671C0.000251853 408.281 6.38977 424.254 17.845 436.282C29.3003 448.309 44.9434 455.469 61.5334 456.279V456.443L191.077 456.443L191.077 326.899C191.086 318.388 189.416 309.958 186.165 302.093C182.913 294.227 178.144 287.079 172.128 281.058C166.113 275.037 158.969 270.26 151.107 267.001C143.244 263.742 134.817 262.065 126.305 262.065C117.794 262.065 109.366 263.742 101.504 267.001C93.6412 270.26 86.4981 275.037 80.4826 281.058C74.4672 287.079 69.6974 294.227 66.446 302.093C63.1945 309.958 61.5252 318.388 61.5334 326.899Z" fill="#FFBCD9"/>
<path id="Vector_23" d="M59.3155 358.456C47.7858 357.022 36.9578 365.132 32.4672 375.375C27.4313 386.861 30.8266 400.102 38.1313 409.81C46.176 420.502 58.3614 426.734 71.0991 430.042C84.7721 433.594 99.2866 434.552 113.361 433.897C130 433.126 146.419 429.788 162.038 424.002C163.832 423.336 163.056 420.435 161.24 421.109C135.24 430.763 106.295 433.809 78.9532 428.712C66.7316 426.434 54.2845 422.087 45.1771 413.294C36.9249 405.327 31.0869 393.26 33.5705 381.608C36.0383 370.029 47.0472 359.931 59.3155 361.456C61.2267 361.694 61.2094 358.692 59.3155 358.456Z" fill="white"/>
</g>
<path id="Vector_24" d="M251.134 211.506C253.923 200.359 248.521 188.401 240.158 180.521C231.795 172.64 220.882 168.111 210.08 164.19C201.467 161.062 191.377 158.342 183.582 163.159C177.317 167.029 174.6 174.547 171.019 180.981C164.195 193.241 153.185 202.636 140.004 207.446C126.822 212.256 112.35 212.16 99.2329 207.176C103.856 220.598 119.781 227.162 133.947 226.251C148.113 225.339 161.198 218.815 174.394 213.584C187.59 208.353 202.27 204.311 215.833 208.5C221.557 210.268 226.764 213.424 232.432 215.366C238.099 217.308 244.732 217.887 249.784 214.665" fill="#2F2E41"/>
<path id="Vector_25" d="M449.547 619.794L439.89 602.797C439.683 602.468 439.355 602.232 438.977 602.14C438.599 602.048 438.2 602.106 437.864 602.302C437.528 602.499 437.281 602.818 437.176 603.193C437.071 603.568 437.115 603.969 437.3 604.311L446.957 621.308C447.164 621.637 447.492 621.873 447.87 621.965C448.248 622.057 448.647 621.999 448.983 621.803C449.319 621.606 449.566 621.287 449.671 620.912C449.776 620.538 449.732 620.137 449.547 619.794Z" fill="#D8D3F3"/>
</g>
</svg>
