<svg fill="none" height="16" viewBox="0 0 78 16" width="78" xmlns="http://www.w3.org/2000/svg"><path d="m2.56 13.78c0 .3467-.11333.64-.34.88-.22667.2267-.51333.34-.86.34s-.633333-.1133-.86-.34c-.226667-.24-.34-.5333-.34-.88v-8.26c0-.34667.113333-.63333.34-.86.226667-.24.51333-.36.86-.36s.63333.12.86.36c.22667.22667.34.51333.34.86zm-1.22-10.78c-.453333 0-.773333-.07333-.96-.22s-.28-.40667-.28-.78v-.38c0-.38667.1-.646667.3-.78.213333-.146667.533333-.220001.96-.220001.46667 0 .79333.073334.98.220001.18667.146666.28.40667.28.78v.38c0 .38667-.1.65333-.3.8-.2.13333-.52667.2-.98.2zm75.0591 11.98c-.3867 0-.6867-.1-.9-.3-.2-.2133-.3-.5133-.3-.9v-.34c0-.3867.1-.68.3-.88.2133-.2133.5133-.32.9-.32h.26c.3866 0 .68.1067.88.32.2133.2.32.4933.32.88v.34c0 .3867-.1067.6867-.32.9-.2.2-.4934.3-.88.3z" fill="#ff386b"/><path d="m6.48656.979999c.18667 0 .38.053331.58.160001.21334.09333.37334.22.48.38l4.86004 7.48-1-.04 4.98-7.44c.2533-.36.58-.540001.98-.540001.32 0 .6066.113331.86.340001.2533.22667.38.52.38.88v11.58c0 .3467-.1134.64-.34.88-.2267.2267-.5267.34-.9.34-.3734 0-.68-.1133-.92-.34-.2267-.24-.34-.5333-.34-.88v-9.42l.78.18-4.08 6.22c-.12.1467-.2734.2733-.46.38-.1734.1067-.3534.1533-.54.14-.1734.0133-.3534-.0333-.54-.14-.1734-.1067-.32-.2333-.44-.38l-3.82004-6.04.52-1.06v10.12c0 .3467-.10666.64-.32.88-.21333.2267-.49333.34-.84.34-.33333 0-.60666-.1133-.82-.34-.21333-.24-.32-.5333-.32-.88v-11.58c0-.33333.12-.62.36-.86.25334-.24.55334-.360001.9-.360001zm19.96674 14.220001c-1.1334 0-2.12-.2333-2.96-.7-.8267-.48-1.4667-1.1267-1.92-1.94-.44-.8133-.66-1.7333-.66-2.76 0-1.2.24-2.22.72-3.06.4933-.85333 1.1333-1.50667 1.92-1.96.7866-.45333 1.62-.68 2.5-.68.68 0 1.32.14 1.92.42.6133.28 1.1533.66667 1.62 1.16.4666.48.8333 1.04 1.1 1.68.28.64.42 1.32.42 2.04-.0134.32-.14.58-.38.78s-.52.3-.84.3h-7.64l-.6-2h7.34l-.44.4v-.54c-.0267-.38667-.1667-.73333-.42-1.04-.24-.30667-.5467-.54667-.92-.72-.36-.18667-.7467-.28-1.16-.28-.4 0-.7734.05333-1.12.16-.3467.10667-.6467.28667-.9.54-.2534.25333-.4534.59333-.6 1.02-.1467.42667-.22.96667-.22 1.62 0 .72.1466 1.3333.44 1.84.3066.4933.6933.8733 1.16 1.14.48.2533.9866.38 1.52.38.4933 0 .8866-.04 1.18-.12.2933-.08.5266-.1733.7-.28.1866-.12.3533-.22.5-.3.24-.12.4666-.18.68-.18.2933 0 .5333.1.72.3.2.2.3.4333.3.7 0 .36-.1867.6867-.56.98-.3467.2933-.8334.5533-1.46.78-.6267.2133-1.2734.32-1.94.32zm9.3569-1.42c0 .3467-.12.64-.36.88-.2267.2267-.5134.34-.86.34-.3334 0-.6134-.1133-.84-.34-.2267-.24-.34-.5333-.34-.88v-12.36c0-.34667.1133-.633334.34-.860001.24-.24.5333-.359999.88-.359999.3466 0 .6266.119999.84.359999.2266.226667.34.513331.34.860001zm5.0506 0c0 .3467-.1134.64-.34.88-.2267.2267-.5134.34-.86.34-.3467 0-.6334-.1133-.86-.34-.2267-.24-.34-.5333-.34-.88v-8.26c0-.34667.1133-.63333.34-.86.2266-.24.5133-.36.86-.36.3466 0 .6333.12.86.36.2266.22667.34.51333.34.86zm-1.22-10.78c-.4534 0-.7734-.07333-.96-.22-.1867-.14667-.28-.40667-.28-.78v-.38c0-.38667.1-.646667.3-.78.2133-.146667.5333-.220001.96-.220001.4666 0 .7933.073334.98.220001.1866.146666.28.40667.28.78v.38c0 .38667-.1.65333-.3.8-.2.13333-.5267.2-.98.2zm3.0665 10.34c-.1333-.1867-.1933-.4267-.18-.72.0134-.2933.1867-.5467.52-.76.2134-.1333.44-.1867.68-.16.24.0133.4734.1333.7.36.3867.3867.7934.6867 1.22.9.4267.2133.96.32 1.6.32.2-.0133.42-.04.66-.08.24-.0533.4467-.16.62-.32.1867-.1733.28-.4333.28-.78 0-.2933-.1-.5267-.3-.7s-.4666-.32-.8-.44c-.32-.12-.68-.2333-1.08-.34-.4133-.12-.84-.2533-1.28-.4-.4266-.1467-.82-.33333-1.18-.56-.36-.24-.6533-.55333-.88-.94-.2266-.38667-.34-.87333-.34-1.46 0-.66667.1867-1.23333.56-1.7.3734-.46667.8534-.82667 1.44-1.08.6-.25333 1.2267-.38 1.88-.38.4134 0 .8467.05333 1.3.16.4534.09333.8867.25333 1.3.48.4134.21333.76.5 1.04.86.1467.2.2334.44.26.72.0267.28-.1.53333-.38.76-.2.16-.4333.23333-.7.22-.2666-.02667-.4866-.12-.66-.28-.2266-.29333-.5333-.52667-.92-.7-.3733-.17333-.8066-.26-1.3-.26-.2 0-.42.02667-.66.08-.2266.04-.4266.14-.6.3-.1733.14667-.26.38667-.26.72 0 .30667.1.55333.3.74.2.17333.4667.32.8.44.3467.10667.7134.21333 1.1.32.4.10667.8067.23333 1.22.38.4134.14667.7934.34 1.14.58.3467.24.6267.5533.84.94.2134.3733.32.8533.32 1.44 0 .68-.2 1.26-.6 1.74s-.9.8467-1.5 1.1c-.6.24-1.2133.36-1.84.36-.7866 0-1.5733-.1333-2.36-.4-.7866-.28-1.44-.7667-1.96-1.46zm9.6485 0c-.1334-.1867-.1934-.4267-.18-.72.0133-.2933.1866-.5467.52-.76.2133-.1333.44-.1867.68-.16.24.0133.4733.1333.7.36.3866.3867.7933.6867 1.22.9.4266.2133.96.32 1.6.32.2-.0133.42-.04.66-.08.24-.0533.4466-.16.62-.32.1866-.1733.28-.4333.28-.78 0-.2933-.1-.5267-.3-.7s-.4667-.32-.8-.44c-.32-.12-.68-.2333-1.08-.34-.4134-.12-.84-.2533-1.28-.4-.4267-.1467-.82-.33333-1.18-.56-.36-.24-.6534-.55333-.88-.94-.2267-.38667-.34-.87333-.34-1.46 0-.66667.1866-1.23333.56-1.7.3733-.46667.8533-.82667 1.44-1.08.6-.25333 1.2266-.38 1.88-.38.4133 0 .8466.05333 1.3.16.4533.09333.8866.25333 1.3.48.4133.21333.76.5 1.04.86.1466.2.2333.44.26.72.0266.28-.1.53333-.38.76-.2.16-.4334.23333-.7.22-.2667-.02667-.4867-.12-.66-.28-.2267-.29333-.5334-.52667-.92-.7-.3734-.17333-.8067-.26-1.3-.26-.2 0-.42.02667-.66.08-.2267.04-.4267.14-.6.3-.1734.14667-.26.38667-.26.72 0 .30667.1.55333.3.74.2.17333.4666.32.8.44.3466.10667.7133.21333 1.1.32.4.10667.8066.23333 1.22.38.4133.14667.7933.34 1.14.58.3466.24.6266.5533.84.94.2133.3733.32.8533.32 1.44 0 .68-.2 1.26-.6 1.74s-.9.8467-1.5 1.1c-.6.24-1.2134.36-1.84.36-.7867 0-1.5734-.1333-2.36-.4-.7867-.28-1.44-.7667-1.96-1.46zm19.1847-9.24c.3466 0 .6333.11333.86.34.2266.22667.34.52.34.88v8.46c0 .3467-.1134.64-.34.88-.2267.2267-.5134.34-.86.34-.3467 0-.6334-.1133-.86-.34-.2267-.24-.34-.5333-.34-.88v-.98l.44.18c0 .1733-.0934.3867-.28.64-.1867.24-.44.48-.76.72s-.7.4467-1.14.62c-.4267.16-.8934.24-1.4.24-.92 0-1.7534-.2333-2.5-.7-.7467-.48-1.34-1.1333-1.78-1.96-.4267-.84-.64-1.8-.64-2.88 0-1.09333.2133-2.05333.64-2.88.44-.84 1.0266-1.49333 1.76-1.96.7333-.48 1.5466-.72 2.44-.72.5733 0 1.1.08667 1.58.26s.8933.39333 1.24.66c.36.26667.6333.54.82.82.2.26667.3.49333.3.68l-.72.26v-1.46c0-.34667.1133-.63333.34-.86.2266-.24.5133-.36.86-.36zm-4.04 8.9c.5866 0 1.1-.1467 1.54-.44s.78-.6933 1.02-1.2c.2533-.5067.38-1.0733.38-1.7 0-.64-.1267-1.21333-.38-1.72-.24-.50667-.58-.90667-1.02-1.2s-.9534-.44-1.54-.44c-.5734 0-1.08.14667-1.52.44s-.7867.69333-1.04 1.2c-.24.50667-.36 1.08-.36 1.72 0 .6267.12 1.1933.36 1.7.2533.5067.6.9067 1.04 1.2s.9466.44 1.52.44z" fill="#262626"/></svg>