<svg width="68" height="68" viewBox="0 0 68 68" fill="none" xmlns="http://www.w3.org/2000/svg">
<circle cx="34" cy="34" r="34" fill="#FF386B"/>
<g clip-path="url(#clip0_47_11561)">
<path fill-rule="evenodd" clip-rule="evenodd" d="M34.0001 25.2973C29.746 25.2973 26.2974 28.7459 26.2974 33C26.2974 37.254 29.746 40.7026 34.0001 40.7026C38.2541 40.7026 41.7027 37.254 41.7027 33C41.7027 28.7459 38.2541 25.2973 34.0001 25.2973ZM34.0001 37.9999C31.2386 37.9999 29.0001 35.7613 29.0001 33C29.0001 30.2385 31.2386 28 34.0001 28C36.7614 28 39 30.2385 39 33C39 35.7613 36.7614 37.9999 34.0001 37.9999Z" fill="white"/>
<path d="M42.007 26.7929C43.0011 26.7929 43.807 25.9871 43.807 24.9929C43.807 23.9988 43.0011 23.193 42.007 23.193C41.0129 23.193 40.207 23.9988 40.207 24.9929C40.207 25.9871 41.0129 26.7929 42.007 26.7929Z" fill="white"/>
<path fill-rule="evenodd" clip-rule="evenodd" d="M34 18C29.9262 18 29.4154 18.0173 27.8155 18.0903C26.2189 18.1631 25.1285 18.4167 24.1744 18.7875C23.188 19.1708 22.3514 19.6837 21.5176 20.5177C20.6837 21.3515 20.1708 22.188 19.7874 23.1744C19.4166 24.1285 19.1631 25.2189 19.0902 26.8155C19.0172 28.4154 19 28.9262 19 33C19 37.0737 19.0172 37.5845 19.0902 39.1844C19.1631 40.781 19.4166 41.8714 19.7874 42.8255C20.1708 43.8118 20.6837 44.6484 21.5176 45.4823C22.3514 46.3162 23.188 46.8291 24.1744 47.2124C25.1285 47.5832 26.2189 47.8368 27.8155 47.9096C29.4154 47.9826 29.9262 47.9999 34 47.9999C38.0737 47.9999 38.5845 47.9826 40.1844 47.9096C41.781 47.8368 42.8714 47.5832 43.8255 47.2124C44.8118 46.8291 45.6484 46.3162 46.4823 45.4823C47.3162 44.6484 47.8291 43.8118 48.2124 42.8255C48.5832 41.8714 48.8368 40.781 48.9096 39.1844C48.9826 37.5845 48.9999 37.0737 48.9999 33C48.9999 28.9262 48.9826 28.4154 48.9096 26.8155C48.8368 25.2189 48.5832 24.1285 48.2124 23.1744C47.8291 22.188 47.3162 21.3515 46.4823 20.5177C45.6484 19.6837 44.8118 19.1708 43.8255 18.7875C42.8714 18.4167 41.781 18.1631 40.1844 18.0903C38.5845 18.0173 38.0737 18 34 18ZM34 20.7028C38.0051 20.7028 38.4796 20.718 40.0612 20.7902C41.5237 20.8569 42.3179 21.1012 42.8465 21.3066C43.5466 21.5787 44.0463 21.9038 44.5712 22.4287C45.0961 22.9536 45.4212 23.4533 45.6933 24.1534C45.8987 24.682 46.143 25.4762 46.2098 26.9387C46.2819 28.5204 46.2972 28.9948 46.2972 33C46.2972 37.0051 46.2819 37.4796 46.2098 39.0612C46.143 40.5237 45.8987 41.3179 45.6933 41.8465C45.4212 42.5466 45.0961 43.0463 44.5712 43.5712C44.0463 44.0961 43.5466 44.4212 42.8465 44.6933C42.3179 44.8987 41.5237 45.143 40.0612 45.2097C38.4798 45.2819 38.0054 45.2972 34 45.2972C29.9945 45.2972 29.5202 45.2819 27.9387 45.2097C26.4762 45.143 25.682 44.8987 25.1534 44.6933C24.4533 44.4212 23.9536 44.0961 23.4286 43.5712C22.9037 43.0463 22.5787 42.5466 22.3066 41.8465C22.1012 41.3179 21.8569 40.5237 21.7901 39.0612C21.7179 37.4796 21.7027 37.0051 21.7027 33C21.7027 28.9948 21.7179 28.5204 21.7901 26.9387C21.8569 25.4762 22.1012 24.682 22.3066 24.1534C22.5787 23.4533 22.9037 22.9536 23.4286 22.4287C23.9536 21.9038 24.4533 21.5787 25.1534 21.3066C25.682 21.1012 26.4762 20.8569 27.9387 20.7902C29.5204 20.718 29.9948 20.7028 34 20.7028Z" fill="white"/>
</g>
<defs>
<clipPath id="clip0_47_11561">
<rect width="30" height="30" fill="white" transform="translate(19 18)"/>
</clipPath>
</defs>
</svg>
