<svg width="853" height="680" viewBox="0 0 853 680" fill="none" xmlns="http://www.w3.org/2000/svg">
<g id="pinkgirl" clip-path="url(#clip0_122_15027)">
<path id="Vector" d="M438.623 98.8088C430.954 86.1243 421.866 72.5811 407.634 68.4392C391.152 63.6427 374.221 73.1712 359.859 82.5738C316.91 110.694 275.549 141.168 235.966 173.857L236.009 174.349C266.826 172.224 297.643 170.099 328.46 167.974C350.725 166.438 373.756 164.691 393.432 154.158C400.899 150.161 408.177 144.822 416.638 144.45C427.149 143.988 436.315 151.33 443.518 159C486.125 204.371 498.455 273.754 546.256 313.616C516.114 239.28 480.124 167.453 438.623 98.8088Z" fill="#F2F2F2"/>
<path id="Vector_2" d="M700.524 483.637C695.813 477.688 693.887 476.294 689.24 470.29C651.397 421.345 615.827 370.748 582.532 318.497C559.916 283.011 538.422 246.842 518.049 209.993C508.35 192.474 498.917 174.818 489.749 157.024C482.636 143.227 475.681 129.348 468.885 115.386C466.941 111.398 465.053 107.392 463.174 103.377C458.746 93.9347 454.4 84.4465 449.734 75.1325C444.417 64.5168 437.945 53.3876 428.182 46.2555C423.738 42.8765 418.425 40.832 412.863 40.3609C404.915 39.8476 397.581 43.1295 390.687 46.7139C340.249 73.0149 293.028 105.99 250.318 143.512C207.498 181.118 169.224 223.603 136.276 270.103C135.268 271.542 132.884 270.167 133.902 268.719C137.908 263.053 141.994 257.449 146.159 251.906C197.947 183.028 261.448 123.797 333.758 76.9201C345.924 69.0363 358.318 61.5221 370.941 54.3777C377.303 50.7749 383.693 47.218 390.192 43.8811C396.564 40.6084 403.329 37.6657 410.608 37.5557C435.378 37.1707 448.203 65.2227 457.013 84.0982C459.781 90.0386 462.584 95.9607 465.419 101.864C476.136 124.278 487.265 146.488 498.807 168.492C505.93 182.078 513.209 195.585 520.643 209.012C543.781 250.824 568.374 291.79 594.422 331.909C628.928 385.052 663.158 431.998 702.468 481.694C703.55 483.069 701.616 485.031 700.524 483.637Z" fill="#E4E4E4"/>
<path id="Vector_3" d="M247.87 129.66C246.431 128.055 245.001 126.451 243.552 124.847C232.13 112.214 219.873 99.7282 204.188 92.486C196.709 88.9238 188.544 87.0313 180.261 86.9398C171.699 86.9673 163.329 89.2133 155.418 92.3577C151.678 93.852 148.02 95.5479 144.417 97.3538C140.301 99.4257 136.258 101.635 132.234 103.863C124.68 108.043 117.224 112.407 109.866 116.954C95.2252 126.002 81.0433 135.74 67.32 146.17C60.2059 151.579 53.2386 157.164 46.4182 162.928C40.0745 168.281 33.8591 173.779 27.772 179.42C26.4703 180.621 24.5268 178.677 25.8284 177.476C27.4327 175.982 29.0554 174.497 30.678 173.03C35.2617 168.886 39.9187 164.822 44.6492 160.838C53.2753 153.559 62.1248 146.561 71.1977 139.844C85.3063 129.394 99.9006 119.652 114.981 110.619C122.516 106.109 130.156 101.788 137.899 97.6564C140.237 96.4097 142.602 95.1904 144.995 94.0353C150.424 91.2969 156.064 89.0007 161.862 87.169C170.076 84.512 178.765 83.6584 187.338 84.6663C195.616 85.8704 203.591 88.6293 210.844 92.7977C226.244 101.406 238.189 114.717 249.814 127.707C250.987 129.027 249.053 130.98 247.87 129.66Z" fill="#E4E4E4"/>
<path id="Vector_4" d="M563.431 260.567L600.335 247.069L618.658 240.367C624.626 238.184 630.579 235.699 636.748 234.136C642.109 232.605 647.802 232.678 653.122 234.345C657.866 236.101 662.21 238.793 665.893 242.262C669.656 245.727 673.157 249.466 676.368 253.448C680.357 258.242 684.287 263.087 688.235 267.915C704.53 287.842 720.717 307.856 736.798 327.957C752.879 348.056 768.853 368.242 784.718 388.512C800.623 408.833 816.418 429.238 832.104 449.728C834.025 452.238 835.945 454.75 837.863 457.262C838.923 458.65 841.313 457.282 840.238 455.874C824.437 435.178 808.525 414.567 792.503 394.04C776.442 373.464 760.27 352.975 743.987 332.574C727.704 312.173 711.311 291.86 694.808 271.636C690.697 266.598 686.579 261.565 682.454 256.538C678.974 252.297 675.534 248.011 671.718 244.064C664.712 236.818 655.96 230.416 645.483 230.242C639.323 230.14 633.362 232.094 627.639 234.165C621.469 236.397 615.315 238.67 609.153 240.924L571.99 254.517L562.699 257.915C561.051 258.518 561.763 261.177 563.431 260.567Z" fill="#E4E4E4"/>
<path id="Vector_5" d="M199.331 108.382C180.577 98.743 156.56 100.631 139.326 112.673C172.198 118.344 204.71 125.932 236.697 135.399C223.414 127.615 213.024 115.419 199.331 108.382Z" fill="#F2F2F2"/>
<path id="Vector_6" d="M139.142 112.64L135.531 115.574C136.752 114.547 138.022 113.584 139.326 112.673C139.265 112.662 139.203 112.65 139.142 112.64Z" fill="#F2F2F2"/>
<path id="Vector_7" d="M664.503 260.701C660.87 256.279 656.942 251.649 651.509 249.853L646.436 250.053C685.053 318.292 737.21 377.919 799.703 425.274C754.636 370.416 709.57 315.559 664.503 260.701Z" fill="#F2F2F2"/>
<path id="Vector_8" d="M187.565 487.092C185.349 490.081 182.993 492.971 180.496 495.732C158.766 499.403 138.608 503.371 120.141 507.405C114.801 508.569 109.607 509.739 104.56 510.915L104.677 510.554C102.989 497.477 104.861 484.188 110.097 472.087C110.421 471.344 110.755 470.602 111.098 469.869C114.537 462.478 119.208 455.726 124.913 449.903C133.59 441.1 144.435 434.51 155.544 428.317C176.338 416.734 198.014 406.503 207.97 385.629C212.106 403.011 212.424 421.083 208.901 438.6C205.379 456.117 198.099 472.661 187.565 487.092Z" fill="#E6E6E6"/>
<path id="Vector_9" d="M74.7758 431.45C84.5197 421.662 92.796 410.516 99.3473 398.358C105.879 386.262 110.67 373.304 113.578 359.868C116.526 346.233 117.424 332.234 116.241 318.333C113.792 290.023 103.099 263.052 85.4842 240.755C84.4087 239.399 83.3077 238.064 82.1815 236.749C80.9259 235.28 78.8311 237.429 80.0779 238.888C98.0401 260.065 109.399 286.043 112.75 313.609C115.183 334.675 112.84 356.017 105.896 376.054C98.9515 396.09 87.584 414.305 72.6369 429.347C71.2714 430.716 73.4105 432.819 74.7758 431.45Z" fill="#CCCCCC"/>
<path id="Vector_10" d="M86.7147 243.292C85.4964 242.848 84.3028 242.339 83.1389 241.768C83.0811 241.859 83.0247 241.951 82.9668 242.042L86.7147 243.292Z" fill="#E6E6E6"/>
<path id="Vector_11" d="M87.7154 204.695C83.4779 199.476 75.4414 197.186 69.6699 200.635C65.8 202.947 63.5086 207.398 63.1057 211.888C62.8556 216.417 63.8666 220.926 66.0263 224.914C69.7525 232.239 75.7584 238.154 83.1389 241.768C86.6937 236.184 90.0227 230.315 91.4064 223.845C92.8127 217.271 91.9527 209.915 87.7154 204.695Z" fill="#CCCCCC"/>
<path id="Vector_12" d="M139.795 241.762C141.88 233.136 142.07 224.16 140.352 215.454C138.634 206.747 135.049 198.517 129.844 191.329C128.931 208.931 110.59 220.287 103.975 236.624C101.951 241.735 101.104 247.237 101.495 252.72C101.886 258.203 103.506 263.528 106.235 268.301L107.36 281.642C115.328 277.734 122.353 272.145 127.953 265.26C133.552 258.376 137.592 250.359 139.795 241.762Z" fill="#CCCCCC"/>
<path id="Vector_13" d="M172.865 291.414C163.771 306.512 142.243 307.894 128.714 319.192C124.522 322.748 121.184 327.202 118.947 332.223C116.71 337.245 115.631 342.705 115.791 348.2L110.501 360.5C119.378 360.865 128.227 359.271 136.418 355.83C144.609 352.389 151.942 347.187 157.895 340.592C163.848 333.997 168.276 326.171 170.863 317.672C173.45 309.173 174.134 300.208 172.865 291.414Z" fill="#CCCCCC"/>
<path id="Vector_14" d="M88.2343 324.973C81.3466 330.585 75.7794 337.645 71.9285 345.652C68.0776 353.658 66.0374 362.415 65.9529 371.299C65.8685 380.183 67.7418 388.976 71.4398 397.055C75.1378 405.133 80.5697 412.297 87.3495 418.039L91.7848 405.406C95.6234 401.471 98.5272 396.722 100.281 391.512C102.035 386.302 102.594 380.764 101.917 375.309C99.611 357.835 84.7039 342.241 88.2343 324.973Z" fill="#CCCCCC"/>
<path id="Vector_15" d="M89.2315 495.522C85.6015 506.342 76.8318 514.806 66.8176 520.349C66.2901 520.644 65.7624 520.928 65.2347 521.203C64.7966 521.436 64.3485 521.66 63.9002 521.874C60.2868 522.684 56.6424 523.374 53.0187 524.145C53.0087 524.145 52.9989 524.155 52.9889 524.155C47.5814 525.68 42.4803 527.166 37.6854 528.612C34.9921 529.415 32.3885 530.207 29.895 530.987C29.5658 531.08 29.2466 531.183 28.9174 531.286C28.4885 531.419 28.0696 531.553 27.6506 531.676C27.6404 531.656 27.6304 531.646 27.6302 531.626C27.6201 531.616 27.6201 531.616 27.6301 531.606C25.7041 527.302 23.8381 522.988 22.0515 518.602C15.0039 501.736 9.40864 484.298 5.32675 466.48C0.495277 444.719 -1.4296 422.535 1.14604 400.392C2.93102 385.163 7.10337 370.309 13.5098 356.378C14.4333 354.39 15.4003 352.425 16.4108 350.483C16.7157 349.871 17.0307 349.268 17.3656 348.665L17.3656 348.655C17.3951 348.595 17.4346 348.535 17.474 348.465L17.6217 348.193L17.6216 348.183C18.4981 346.556 19.4115 344.952 20.3616 343.37C25.0758 335.407 30.6513 327.986 36.9879 321.241C47.7038 309.65 60.9333 300.67 75.6606 294.988L75.6706 294.988C76.3783 294.712 77.0962 294.456 77.8141 294.2C77.5406 294.972 77.2669 295.735 77.0033 296.507C73.4095 306.887 70.6491 317.538 68.7483 328.357C68.6052 329.188 68.4622 330.029 68.3293 330.87C64.0634 356.973 64.6824 383.641 70.1545 409.518C70.1651 409.588 70.1856 409.657 70.1962 409.727C71.4141 415.457 72.878 421.125 74.588 426.731C74.6294 426.891 74.6706 427.041 74.7219 427.2C75.051 428.288 75.4001 429.375 75.7491 430.452C76.7653 433.594 77.8613 436.711 79.0371 439.805C85.8877 457.858 95.3793 477.22 89.2315 495.522Z" fill="#F0F0F0"/>
<path id="Vector_16" d="M78.2511 295.056C77.8251 295.54 77.4091 296.023 77.0031 296.507C68.2818 306.667 60.7107 317.761 54.4279 329.586C54.1128 330.179 53.7978 330.781 53.4928 331.384C44.9122 347.891 38.9405 365.628 35.7902 383.963C35.8003 383.973 35.8003 383.973 35.7904 383.983C35.7618 384.153 35.7332 384.324 35.7048 384.504C35.7148 384.514 35.7149 384.524 35.7049 384.524C34.9806 388.81 34.4266 393.135 34.0426 397.458C33.3203 405.585 33.2895 413.895 35.1362 421.89C36.6706 428.471 39.7216 434.603 44.0457 439.796C44.4601 440.323 44.8944 440.839 45.3487 441.356C45.702 441.763 46.0655 442.17 46.4388 442.567C49.9203 446.328 53.76 449.876 57.0134 453.879C58.5007 455.684 59.8253 457.617 60.9717 459.656C64.8098 466.624 65.0261 474.573 62.488 482.024C59.3939 491.14 53.2159 498.612 46.9047 505.695C40.1378 513.302 33.0026 521.101 29.8948 530.987C29.5656 531.08 29.2464 531.183 28.9173 531.286C28.4884 531.419 28.0695 531.553 27.6505 531.676C27.7526 531.925 27.8646 532.174 27.9767 532.423C27.8623 532.338 27.7702 532.227 27.7082 532.099C27.6462 531.97 27.6161 531.829 27.6206 531.686C27.6188 531.666 27.6221 531.645 27.6301 531.626C27.62 531.616 27.62 531.616 27.6299 531.606C27.6295 531.535 27.639 531.465 27.6581 531.396C28.4379 528.654 29.5017 526.001 30.8323 523.479C30.8321 523.459 30.8321 523.459 30.842 523.449C37.9499 509.95 51.4208 500.407 58.3464 486.649C62.1833 479.047 63.74 470.243 60.0234 462.274C58.9244 459.97 57.5641 457.801 55.9694 455.808C52.856 451.814 49.0467 448.305 45.6061 444.644C44.7485 443.741 43.9308 442.818 43.1429 441.874C38.847 436.93 35.6613 431.122 33.8007 424.841C31.5552 416.98 31.2557 408.652 31.7682 400.537C32.0947 395.325 32.7013 390.109 33.5482 384.932C33.6526 384.261 33.7672 383.6 33.8915 382.929L33.8915 382.919C39.7172 350.406 54.1392 320.045 75.6604 294.988L75.6704 294.988C76.0664 294.505 76.4824 294.021 76.8985 293.548C77.7604 292.57 79.1131 294.089 78.2511 295.056Z" fill="white"/>
<path id="Vector_17" d="M34.4852 385.172C28.2036 383.703 22.649 380.048 18.8133 374.861C14.9776 369.674 13.1107 363.292 13.5459 356.855C13.566 356.593 13.6873 356.349 13.884 356.174C14.0807 355.999 14.3375 355.908 14.6004 355.919C14.8632 355.93 15.1116 356.042 15.2931 356.233C15.4746 356.423 15.5751 356.677 15.5734 356.94C15.1571 362.933 16.8968 368.877 20.4784 373.7C24.0601 378.523 29.2478 381.907 35.1052 383.241C36.3778 383.532 35.7505 385.462 34.4852 385.172Z" fill="white"/>
<path id="Vector_18" d="M43.5078 440.126C54.7739 433.271 63.0424 422.422 66.6646 409.741C67.0224 408.485 68.9537 409.106 68.5963 410.361C64.8024 423.55 56.1748 434.823 44.4353 441.93C43.3159 442.607 42.3944 440.799 43.5078 440.126Z" fill="white"/>
<path id="Vector_19" d="M53.8515 329.344C56.1635 330.419 58.7063 330.903 61.2516 330.753C63.7969 330.602 66.265 329.822 68.4342 328.482C69.5444 327.791 70.4647 329.6 69.3617 330.286C66.9582 331.756 64.2314 332.614 61.4196 332.787C58.6078 332.959 55.7965 332.44 53.2314 331.276C52.9805 331.186 52.773 331.004 52.6512 330.767C52.5293 330.53 52.5023 330.256 52.5756 330C52.659 329.744 52.8397 329.532 53.0787 329.41C53.3176 329.287 53.5953 329.263 53.8515 329.344Z" fill="white"/>
<path id="Vector_20" d="M211.289 374.681C210.603 375.127 209.937 375.582 209.25 376.038L209.25 376.042L209.248 376.045L209.244 376.047L209.24 376.048C200.121 382.155 191.512 388.992 183.5 396.493L183.49 396.503C182.855 397.079 182.23 397.664 181.614 398.249C162.55 416.493 147.023 438.104 135.814 461.993L135.725 462.173C131.276 471.716 127.557 481.582 124.601 491.687C123.104 496.81 121.708 502.142 120.142 507.405C114.801 508.569 109.607 509.739 104.56 510.915C98.1526 512.398 91.9814 513.886 86.047 515.379C83.4721 516.011 80.944 516.648 78.4626 517.292C73.7788 519.316 68.8989 520.851 63.9003 521.874C60.2869 522.684 56.6425 523.374 53.0188 524.145C53.0088 524.145 52.9989 524.155 52.9889 524.155C47.5814 525.68 42.4803 527.166 37.6855 528.613C34.9921 529.415 32.3886 530.207 29.895 530.988C29.5658 531.08 29.2467 531.183 28.9175 531.286C29.5359 528.69 30.1641 526.075 30.8325 523.479C30.8323 523.459 30.8323 523.459 30.8422 523.449C36.7976 500.059 44.7554 476.962 55.9696 455.808C56.3043 455.165 56.6388 454.512 57.0136 453.879C61.5585 445.42 66.7115 437.302 72.4318 429.59C73.1239 428.634 73.846 427.688 74.5781 426.742L74.5881 426.732C77.6553 422.786 80.8936 418.962 84.3028 415.26C84.8974 414.605 85.512 413.95 86.1266 413.305C86.424 412.993 86.7314 412.68 87.0388 412.367C88.189 411.178 89.3692 409.998 90.5697 408.858C92.4547 407.042 94.4 405.276 96.3857 403.559C104.368 396.692 113.069 390.708 122.338 385.712C122.398 385.682 122.467 385.641 122.527 385.611C149.278 371.247 180.322 365.589 209.083 374.009C209.825 374.233 210.547 374.447 211.289 374.681Z" fill="#F0F0F0"/>
<path id="Vector_21" d="M37.6855 528.612C42.6332 526.643 47.7576 525.15 52.989 524.155C47.5815 525.68 42.4804 527.166 37.6855 528.612Z" fill="white"/>
<path id="Vector_22" d="M211.127 375.632C210.498 375.757 209.869 375.893 209.25 376.038C196.169 378.906 183.444 383.207 171.306 388.864C170.688 389.149 170.081 389.435 169.483 389.73C152.694 397.748 137.247 408.317 123.692 421.062L123.692 421.066L123.69 421.069L123.686 421.071L123.682 421.072C123.549 421.185 123.423 421.306 123.305 421.435C123.306 421.445 123.305 421.445 123.295 421.445C120.14 424.422 117.099 427.531 114.173 430.772C108.703 436.827 103.668 443.45 100.33 450.938C97.6014 457.119 96.3462 463.85 96.6641 470.599C96.6897 471.269 96.7253 471.949 96.781 472.628C96.8155 473.168 96.86 473.707 96.9145 474.257C97.6663 481.671 99.2889 489.178 98.2211 496.647C97.0965 504.497 92.51 510.945 86.0468 515.379C83.4719 516.01 80.9438 516.648 78.4624 517.292C78.9408 517.088 79.4089 516.864 79.877 516.63C87.5158 512.857 94.0653 506.772 95.8938 498.176C97.4911 490.653 95.8166 482.916 94.9941 475.413C94.864 474.204 94.7641 473.015 94.7042 471.825C94.6955 471.773 94.6917 471.719 94.6929 471.665C94.2426 465.147 95.1976 458.608 97.4932 452.491C100.43 444.867 105.213 438.037 110.502 431.862C113.909 427.894 117.527 424.094 121.317 420.482C121.803 419.998 122.3 419.534 122.796 419.079C136.657 406.24 152.398 395.594 169.474 387.51C182.124 381.524 195.412 376.995 209.083 374.009C209.702 373.874 210.331 373.739 210.95 373.614C212.228 373.353 212.395 375.372 211.127 375.632Z" fill="white"/>
<path id="Vector_23" d="M121.921 421.232C117.79 416.277 115.556 410.014 115.616 403.563C115.676 397.112 118.028 390.893 122.251 386.016C123.108 385.032 124.678 386.319 123.819 387.304C119.878 391.838 117.688 397.632 117.644 403.639C117.6 409.646 119.705 415.471 123.579 420.063C124.419 421.062 122.757 422.225 121.921 421.232Z" fill="white"/>
<path id="Vector_24" d="M96.0391 470.542C109.162 471.851 122.296 468.167 132.822 460.223C133.864 459.435 135.032 461.094 133.991 461.881C123.022 470.127 109.346 473.934 95.6933 472.541C94.3921 472.407 94.745 470.409 96.0391 470.542Z" fill="white"/>
<path id="Vector_25" d="M170.996 388.316C172.195 390.566 173.934 392.484 176.057 393.896C178.18 395.309 180.62 396.171 183.159 396.407C184.461 396.525 184.107 398.523 182.813 398.407C180.009 398.133 177.315 397.176 174.966 395.621C172.617 394.066 170.685 391.959 169.338 389.485C169.192 389.263 169.135 388.993 169.181 388.73C169.226 388.467 169.37 388.232 169.583 388.072C169.803 387.918 170.075 387.857 170.34 387.903C170.605 387.949 170.84 388.097 170.996 388.316Z" fill="white"/>
<path id="Vector_26" d="M317.876 445.579C314.945 458.66 307.92 470.465 297.822 479.281C297.092 479.922 296.344 480.546 295.581 481.154C293.708 481.318 291.844 481.49 290.005 481.671C288.477 481.811 286.963 481.956 285.463 482.106C285.373 482.114 285.283 482.123 285.201 482.131L285.012 480.488L284.248 473.853C281.299 469.039 279.471 463.623 278.899 458.007C278.328 452.39 279.028 446.717 280.947 441.408C283.583 434.288 288.37 427.998 293.068 421.765C299.555 413.142 305.87 404.618 306.1 394.115C313.316 403.444 317.756 414.618 318.911 426.355C319.582 432.778 319.233 439.266 317.876 445.579Z" fill="#E6E6E6"/>
<path id="Vector_27" d="M351.077 419.367C336.435 430.009 336.936 452.157 326.581 467.004C323.426 471.484 319.317 475.208 314.55 477.91C313.249 478.651 311.906 479.314 310.526 479.897C305.451 480.291 300.469 480.71 295.581 481.153C293.708 481.318 291.844 481.49 290.005 481.671C288.477 481.81 286.963 481.956 285.463 482.106C285.455 481.556 285.455 480.997 285.472 480.447C285.784 465.799 291.171 451.713 300.713 440.595C301.165 440.069 301.625 439.56 302.093 439.051C306.928 433.884 312.617 429.589 318.911 426.355C328.819 421.203 339.924 418.79 351.077 419.367Z" fill="#F2F2F2"/>
<path id="Vector_28" d="M291.737 476.538L290.587 479.947L290.004 481.671C288.477 481.811 286.963 481.956 285.463 482.106C285.373 482.114 285.283 482.123 285.2 482.131C283.533 482.303 281.883 482.468 280.24 482.64C279.805 482.139 279.378 481.63 278.959 481.113C268.522 468.472 263.512 452.214 265.025 435.891C266.538 419.568 274.449 404.508 287.032 394C285.192 403.616 288.888 412.649 293.068 421.765C295.917 427.94 298.988 434.148 300.713 440.595C301.152 442.21 301.495 443.85 301.739 445.505C302.508 451.097 302.008 456.79 300.276 462.162C298.545 467.534 295.626 472.448 291.737 476.538Z" fill="#F2F2F2"/>
<path id="Vector_29" d="M581.777 483.057C581.485 483.523 581.179 483.975 580.866 484.421C580.121 484.341 579.383 484.268 578.644 484.188C577.354 484.055 576.066 483.922 574.78 483.789C574.62 483.775 574.461 483.755 574.301 483.742L573.503 482.192L572.013 479.306C568.396 476.507 565.455 472.931 563.41 468.84C561.365 464.75 560.268 460.252 560.2 455.679C560.153 449.52 561.976 443.38 563.745 437.307C566.186 428.92 568.521 420.652 565.681 412.637C573.822 417.638 580.392 424.83 584.637 433.39C586.986 438.059 588.582 443.069 589.367 448.236C591.095 460.378 588.401 472.736 581.777 483.057Z" fill="#E6E6E6"/>
<path id="Vector_30" d="M602.111 461.965C600.959 466.39 598.826 470.499 595.871 473.988C592.915 477.477 589.212 480.256 585.036 482.119L584.005 483.303L582.848 484.64C582.19 484.567 581.524 484.494 580.866 484.421C580.121 484.341 579.383 484.268 578.644 484.188C577.354 484.055 576.066 483.922 574.78 483.789C574.593 483.29 574.427 482.784 574.268 482.272C570.87 471.532 571.106 459.972 574.939 449.38C575.126 448.855 575.325 448.336 575.538 447.824C577.722 442.527 580.8 437.644 584.637 433.39C590.659 426.64 598.375 421.622 606.987 418.856C598.958 431.115 605.69 447.75 602.111 461.965Z" fill="#F2F2F2"/>
<path id="Vector_31" d="M578.591 482.718L578.644 484.188C577.354 484.055 576.066 483.922 574.78 483.789C574.62 483.775 574.461 483.755 574.301 483.742C571.142 483.423 567.997 483.123 564.869 482.844C564.171 482.319 563.479 481.773 562.807 481.195C553.775 473.695 547.665 463.261 545.544 451.715C543.422 440.169 545.424 428.245 551.2 418.024C552.564 425.833 557.958 431.614 563.745 437.307C567.669 441.172 571.78 444.997 574.939 449.38C575.736 450.48 576.467 451.626 577.128 452.812C579.312 456.829 580.566 461.285 580.796 465.851C581.026 470.417 580.227 474.977 578.458 479.192L578.591 482.718Z" fill="#F2F2F2"/>
<path id="Vector_32" d="M845.167 541.47C845.106 541.674 844.98 541.852 844.809 541.978C844.637 542.104 844.43 542.172 844.217 542.17C844.115 542.168 844.014 542.151 843.917 542.12C754.962 513.998 663.443 494.745 570.697 484.64C569.707 484.53 568.707 484.42 567.717 484.31C566.597 484.19 565.487 484.08 564.377 483.96C562.437 483.76 560.5 483.56 558.567 483.36C558.327 483.34 558.087 483.31 557.847 483.29C553.097 482.81 548.37 482.36 543.667 481.94C465.192 474.859 386.263 474.31 307.697 480.3C301.517 480.78 295.45 481.29 289.497 481.83C287.217 482.03 284.947 482.24 282.707 482.46C280.847 482.63 279.004 482.807 277.177 482.99C277.067 483 276.957 483.01 276.857 483.02C274.827 483.23 272.817 483.43 270.817 483.64C262.647 484.49 254.707 485.39 246.997 486.34C97.1871 504.71 3.62706 541.73 2.69706 542.1C2.45041 542.198 2.17488 542.194 1.93109 542.089C1.68729 541.984 1.4952 541.787 1.39707 541.54C1.29894 541.293 1.30281 541.018 1.40783 540.774C1.51285 540.53 1.71042 540.338 1.95707 540.24C2.88707 539.87 96.6371 502.77 246.677 484.37C254.187 483.45 261.714 482.587 269.257 481.78C271.717 481.52 274.167 481.27 276.627 481.02C276.817 481 277.007 480.99 277.187 480.97C279.267 480.76 281.337 480.56 283.417 480.36C286.357 480.08 289.287 479.81 292.227 479.55C299.007 478.94 305.797 478.383 312.597 477.88C379.703 472.908 447.078 472.741 514.207 477.38C522.997 477.99 531.784 478.683 540.567 479.46C545.927 479.92 551.287 480.43 556.647 480.96C557.027 481 557.407 481.04 557.797 481.08C559.967 481.29 562.127 481.52 564.297 481.75C565.897 481.91 567.487 482.08 569.087 482.26C570.207 482.38 571.327 482.5 572.437 482.63C664.794 492.895 755.922 512.184 844.517 540.22C844.643 540.258 844.76 540.321 844.861 540.404C844.962 540.488 845.045 540.591 845.106 540.708C845.166 540.824 845.203 540.952 845.213 541.083C845.224 541.214 845.208 541.345 845.167 541.47Z" fill="#CCCCCC"/>
<path id="Vector_33" d="M267.658 285.382C270.006 293.911 275.295 301.336 282.589 306.341C285.409 308.261 288.746 310.103 289.711 313.375C290.218 315.462 289.905 317.663 288.837 319.525C287.771 321.364 286.473 323.058 284.976 324.567L284.839 325.079C277.841 320.931 271.183 315.685 267.317 308.528C263.451 301.37 262.911 291.989 267.658 285.382Z" fill="#F2F2F2"/>
<path id="Vector_34" d="M620.317 322.528C616.451 315.37 615.911 305.989 620.658 299.382C623.006 307.912 628.295 315.336 635.589 320.341C638.409 322.261 641.746 324.103 642.711 327.376C643.218 329.462 642.905 331.663 641.837 333.526C640.771 335.364 639.473 337.058 637.976 338.567L637.839 339.079C630.841 334.932 624.183 329.686 620.317 322.528Z" fill="#F2F2F2"/>
<path id="Vector_35" d="M469.317 501.528C465.451 494.37 464.911 484.989 469.658 478.382C472.006 486.912 477.295 494.336 484.589 499.341C487.409 501.261 490.746 503.103 491.711 506.376C492.218 508.462 491.905 510.663 490.837 512.526C489.771 514.364 488.473 516.058 486.976 517.567L486.839 518.079C479.841 513.932 473.183 508.686 469.317 501.528Z" fill="#F2F2F2"/>
<path id="sun" d="M680.817 102C708.983 102 731.817 79.1665 731.817 51C731.817 22.8335 708.983 0 680.817 0C652.65 0 629.817 22.8335 629.817 51C629.817 79.1665 652.65 102 680.817 102Z" fill="#FF6584"/>
<g id="cloud">
<path id="Vector_36" d="M772.852 11.8704C748.135 8.52944 719.917 21.8891 713.511 45.994C711.897 41.7081 708.961 38.0465 705.13 35.538C701.298 33.0295 696.768 31.8041 692.194 32.0388C687.62 32.2735 683.239 33.9562 679.685 36.8437C676.13 39.7312 673.585 43.6741 672.417 48.1027L675.247 50.1294C728.215 61.5836 783.044 61.3357 835.906 49.403C818.713 31.334 797.569 15.2113 772.852 11.8704Z" fill="#F0F0F0"/>
<path id="Vector_37" d="M666.852 79.8704C642.135 76.5295 613.917 89.8891 607.511 113.994C605.897 109.708 602.961 106.046 599.13 103.538C595.298 101.03 590.768 99.8041 586.194 100.039C581.62 100.274 577.239 101.956 573.685 104.844C570.13 107.731 567.585 111.674 566.417 116.103L569.247 118.129C622.215 129.584 677.044 129.336 729.906 117.403C712.713 99.334 691.569 83.2113 666.852 79.8704Z" fill="#F0F0F0"/>
</g>
<path id="Vector_38" d="M768.261 468.639C767.047 468.184 765.857 467.666 764.698 467.084C764.64 467.175 764.583 467.266 764.524 467.357L768.261 468.639Z" fill="#E6E6E6"/>
<g id="body">
<path id="Vector_39" d="M404.211 70.0391C404.209 74.7065 405.353 79.3031 407.543 83.4252C409.732 87.5473 412.9 91.0689 416.768 93.6809C420.636 96.2929 425.086 97.9154 429.728 98.406C434.37 98.8966 439.061 98.2404 443.39 96.4947C447.718 94.7491 451.552 91.9676 454.555 88.3943C457.558 84.821 459.638 80.5653 460.612 76.0006C461.586 71.4359 461.425 66.7019 460.142 62.2141C458.859 57.7263 456.495 53.622 453.256 50.2614L453.119 50.1247C452.891 49.885 452.663 49.6456 452.423 49.4174C452.421 49.4174 452.42 49.4171 452.419 49.4166C452.417 49.416 452.416 49.4152 452.415 49.4141C452.414 49.413 452.413 49.4117 452.412 49.4103C452.412 49.409 452.412 49.4075 452.412 49.406C452.115 49.1322 451.819 48.8585 451.511 48.5962C447.39 44.9838 442.316 42.6356 436.896 41.8325C431.475 41.0294 425.938 41.8056 420.948 44.0681C415.957 46.3306 411.724 49.9835 408.756 54.5895C405.787 59.1955 404.209 64.5595 404.211 70.0391Z" fill="#2F2E41"/>
<path id="Vector_40" d="M525.549 257.974C524.026 258.083 522.497 257.858 521.071 257.313C519.645 256.768 518.355 255.917 517.293 254.82C516.231 253.722 515.423 252.406 514.925 250.962C514.427 249.519 514.251 247.984 514.411 246.465L451.911 174.745L471.312 162.934L526.647 237.146C529.181 237.583 531.466 238.934 533.069 240.943C534.673 242.953 535.484 245.48 535.349 248.048C535.214 250.615 534.141 253.043 532.335 254.873C530.529 256.702 528.114 257.805 525.549 257.974Z" fill="#FFB6B6"/>
<path id="Vector_41" d="M433.202 144.235C433.202 144.235 428.304 146.776 435.637 155.881C441.508 163.169 466.938 198.042 477.477 205.644C476.776 207.325 476.655 209.191 477.132 210.949C477.609 212.707 478.657 214.256 480.111 215.352L498.259 195.351C497.667 189.261 493.582 189.319 491.252 189.911L484.579 174.466L459.988 134.452L436.709 142.335L433.202 144.235Z" fill="#FFBCD9"/>
<path id="Vector_42" d="M416.302 194.433L414.823 201.481L413.566 227.478L471.148 220.637L475.027 190.535L469.665 181.724L416.302 194.433Z" fill="#FFB6B6"/>
<path id="Vector_43" d="M439.75 100.547C452.956 100.547 463.661 89.842 463.661 76.6366C463.661 63.4312 452.956 52.7261 439.75 52.7261C426.545 52.7261 415.84 63.4312 415.84 76.6366C415.84 89.842 426.545 100.547 439.75 100.547Z" fill="#FFB7B7"/>
<path id="Vector_44" d="M397.3 164.829L397.153 144.954C397.15 137.803 399.57 130.861 404.019 125.262C408.467 119.663 414.682 115.736 421.649 114.123L421.74 114.102L426.468 107.731L445.677 109.653L449.198 116.848L463.117 125.137L478.947 143.673C483.933 147.253 486.894 151.843 487.751 157.318C489.57 168.939 481.433 180.568 480.465 181.901L477.971 195.947L413.247 204.21L412.807 204.266L397.3 164.829Z" fill="#FFBCD9"/>
<path id="Vector_45" d="M414.727 82.9048C414.944 82.8706 415.161 82.8249 415.377 82.7907C419.107 82.1292 422.837 81.4791 426.555 80.8061L426.897 72.3774L431.402 79.9278C441.679 83.3381 451.294 81.4106 460.339 77.1563C463.322 75.74 466.217 74.1441 469.007 72.3774C468.247 67.7157 466.455 63.2828 463.761 59.403C461.068 55.5232 457.541 52.2947 453.438 49.9536C453.096 49.7596 452.765 49.5887 452.423 49.4174L452.419 49.4166L452.415 49.4142L452.413 49.4104L452.412 49.406C451.83 49.1323 451.237 48.87 450.644 48.6305C446.001 46.8159 440.938 46.3564 436.044 47.3053C431.149 48.2542 426.625 50.5727 422.996 53.9912C415.697 60.9602 412.412 72.4685 414.727 82.9048Z" fill="#2F2E41"/>
<path id="Vector_46" d="M429.233 451.256L441.197 460.461L482.4 418.692L464.741 405.106L429.233 451.256Z" fill="#FFB6B6"/>
<path id="Vector_47" d="M430.807 443.07L450.589 456.495L444.354 464.598L452.779 490.853C453.195 492.15 453.186 493.545 452.753 494.836C452.32 496.128 451.486 497.247 450.371 498.03C449.257 498.813 447.922 499.22 446.561 499.19C445.199 499.161 443.882 498.697 442.803 497.867L420.286 480.54L422.573 469.538L414.89 476.388L406.4 469.855L430.807 443.07Z" fill="#2F2E41"/>
<path id="Vector_48" d="M398.617 519.762H413.713L420.895 461.532L398.614 461.533L398.617 519.762Z" fill="#FFB6B6"/>
<path id="Vector_49" d="M390.407 400.278L390.406 400.122L396.077 390.35L390.287 377.63L389.876 300.323C387.595 244.457 412.945 217.602 413.2 217.338L413.903 216.607L417.716 219.495L421.346 219.5L472.942 215.335L473.295 215.995C475.222 219.608 476.321 245.152 476.542 250.788C478.983 253.614 506.788 285.788 509.259 288.023C525.962 303.136 535.525 328.15 539.739 341.715C540.785 345.068 540.996 348.625 540.353 352.078C539.71 355.531 538.233 358.774 536.05 361.525L475.975 437.137L475.638 437.561L446.572 416.897L490.016 352.731L487.549 346.406C483.122 345.589 479.116 343.262 476.214 339.821L469.286 331.597C467.368 329.326 466.149 326.549 465.777 323.6L461.575 323.094L446.526 307.293L432.654 380.125L436.084 401.848L433.246 409.318L421.92 495.895L421.791 496.889H390.921L390.407 400.278Z" fill="#2F2E41"/>
<path id="Vector_50" d="M393.504 512.315L417.369 510.891V521.115L440.057 536.785C441.178 537.559 442.022 538.67 442.466 539.958C442.91 541.245 442.931 542.641 442.526 543.941C442.121 545.241 441.31 546.378 440.213 547.185C439.116 547.992 437.79 548.427 436.428 548.427H408.017L403.12 538.313L401.207 548.427H390.495L393.504 512.315Z" fill="#2F2E41"/>
<path id="Vector_51" d="M397.256 273.047C396.306 271.851 395.63 270.462 395.275 268.977C394.92 267.491 394.896 265.947 395.203 264.451C395.51 262.955 396.141 261.545 397.052 260.319C397.963 259.094 399.131 258.083 400.475 257.358L384.756 210.822L397.591 161.505L418.289 170.862L405.517 208.06L415.072 262.205C416.141 264.543 416.314 267.192 415.56 269.65C414.806 272.107 413.176 274.203 410.98 275.539C408.784 276.876 406.174 277.36 403.644 276.901C401.115 276.441 398.842 275.07 397.256 273.047Z" fill="#FFB6B6"/>
<path id="Vector_52" d="M416.201 120.872C416.201 120.872 411.34 118.261 407.959 129.452C405.253 138.411 386.833 187.055 386.501 200.045C384.718 200.415 383.108 201.368 381.926 202.753C380.744 204.138 380.056 205.878 379.971 207.697L406.724 211.399C411.418 207.474 409.065 204.134 407.262 202.545L416.374 187.111L435.418 145.445L419.749 122.696L416.201 120.872Z" fill="#FFBCD9"/>
<path id="Vector_53" d="M363.927 103.827C372.064 99.6275 376.872 90.7848 378.975 81.8729C381.078 72.961 380.948 63.695 381.912 54.5893C382.877 45.4837 385.146 36.0922 391.155 29.1827C394.994 24.7676 400.652 21.5082 406.477 22.0612C408.448 22.2483 410.355 22.858 412.069 23.8487C413.783 24.8394 415.263 26.1879 416.409 27.8023C417.555 29.4166 418.339 31.259 418.709 33.2039C419.079 35.1488 419.025 37.1505 418.551 39.0727C420.209 36.7227 424.501 37.232 425.564 39.905C426.508 42.2812 424.422 45.1595 421.966 45.3698C418.753 49.3377 415.074 53.5487 410.04 54.3492C409.238 54.5333 408.405 54.5328 407.603 54.3478C406.801 54.1627 406.052 53.7979 405.412 53.2808C404.228 52.1436 404.136 49.87 405.54 49.0201C399.214 51.5329 395.506 58.3725 394.567 65.1142C393.629 71.8558 394.927 78.677 395.783 85.4297C396.638 92.1823 397.007 99.2859 394.36 105.557C391.231 112.965 384.029 118.276 376.169 119.978C368.309 121.681 359.938 120.017 352.824 116.267C345.709 112.517 339.776 106.793 334.93 100.375C343.278 106.303 354.829 108.524 363.927 103.827Z" fill="#2F2E41"/>
<path id="Vector_54" d="M415.377 82.7907C415.377 82.7907 422.46 56.3523 452.822 50.2501C452.856 50.2389 452.97 50.1931 453.119 50.1248C453.21 50.0677 453.324 50.0106 453.438 49.9537C453.096 49.7597 452.765 49.5888 452.423 49.4175L452.418 49.4167L452.415 49.4142L452.412 49.4105L452.411 49.4061C452.115 49.1324 451.818 48.8586 451.51 48.5963L450.644 48.6306C450.644 48.6306 420.179 43.806 415.377 82.7907Z" fill="#FD6584"/>
</g>
<path id="Vector_55" d="M230.317 74.5278C226.451 67.37 225.911 57.9888 230.658 51.3823C233.006 59.9117 238.295 67.3358 245.589 72.341C248.409 74.2611 251.746 76.1031 252.711 79.3756C253.218 81.4618 252.905 83.6632 251.837 85.5255C250.771 87.364 249.473 89.0582 247.976 90.5669L247.839 91.0789C240.841 86.9316 234.183 81.6855 230.317 74.5278Z" fill="#F2F2F2"/>
<path id="Vector_56" d="M844.217 679.17C844.115 679.17 844.013 679.154 843.916 679.123C579.509 595.505 346.471 606.439 197.536 630.337C177.267 633.588 156.944 637.343 137.132 641.498C132.074 642.558 126.826 643.693 121.535 644.876C115.216 646.283 108.981 647.732 103.003 649.182C100.421 649.793 97.8894 650.409 95.4082 651.03C91.6499 651.958 87.8365 652.925 83.7486 653.987C79.1807 655.165 74.5396 656.4 69.9512 657.659C69.9344 657.665 69.9173 657.67 69.8999 657.674L69.9004 657.675C64.7178 659.09 59.5625 660.546 54.5772 662C51.8789 662.779 49.2735 663.548 46.7779 664.307C46.4991 664.384 46.252 664.458 46.0015 664.534L45.4654 664.697C45.1548 664.792 44.8482 664.885 44.5415 664.973L44.522 664.978L44.5225 664.98L43.711 665.232C42.7432 665.525 41.7988 665.811 40.8701 666.096C16.3252 673.662 2.83205 679.045 2.69875 679.098C2.57685 679.147 2.44653 679.171 2.31522 679.169C2.1839 679.168 2.05417 679.141 1.93343 679.089C1.68958 678.985 1.49713 678.788 1.39846 678.542C1.29978 678.295 1.30293 678.02 1.40723 677.776C1.51153 677.532 1.70843 677.34 1.95461 677.241C2.08889 677.189 15.648 671.778 40.2822 664.184C41.2144 663.898 42.1612 663.611 43.1319 663.317L43.8858 663.083C43.9116 663.073 43.9375 663.066 43.9639 663.058C44.2691 662.971 44.5737 662.878 44.8833 662.784L45.4204 662.621C45.688 662.54 45.9517 662.46 46.2217 662.386C48.7002 661.632 51.3145 660.861 54.0196 660.079C59.0069 658.624 64.167 657.168 69.3535 655.751C69.3697 655.745 69.3863 655.741 69.4024 655.736C74.0069 654.474 78.6651 653.232 83.2476 652.051C87.3418 650.987 91.1626 650.019 94.9273 649.089C97.419 648.469 99.9554 647.851 102.537 647.236C108.522 645.785 114.77 644.334 121.1 642.924C126.399 641.74 131.655 640.602 136.722 639.541C156.565 635.379 176.919 631.618 197.219 628.362C346.368 604.431 579.739 593.479 844.518 677.217C844.746 677.289 844.94 677.44 845.066 677.642C845.192 677.845 845.242 678.086 845.205 678.322C845.169 678.558 845.049 678.774 844.868 678.929C844.687 679.085 844.456 679.17 844.217 679.17Z" fill="#CCCCCC"/>
<path id="Vector_57" d="M195.006 558.742C207.266 553.739 265.369 547.12 278.568 548.099C280.497 548.242 280.659 545.245 278.735 545.103C264.98 544.083 206.379 550.874 193.615 556.084C191.83 556.812 193.228 559.468 195.006 558.742Z" fill="#CCCCCC"/>
<path id="Vector_58" d="M26.8314 597.07C39.2193 592.329 52.5358 590.517 65.7402 591.775C67.6662 591.958 67.8892 588.965 65.9683 588.783C52.2254 587.501 38.3724 589.418 25.4941 594.384C23.6953 595.076 25.0392 597.76 26.8314 597.07Z" fill="#CCCCCC"/>
<path id="Vector_59" d="M512.284 545.333C525.351 543.055 538.768 543.829 551.486 547.596C553.341 548.144 554.134 545.25 552.283 544.703C539.041 540.81 525.078 540.036 511.486 542.44C509.588 542.774 510.393 545.666 512.284 545.333Z" fill="#CCCCCC"/>
<path id="Vector_60" d="M805.817 390L820.618 378.282C819.291 368.457 815.585 359.104 809.822 351.036C808.762 368.629 790.327 379.833 783.577 396.114C781.51 401.208 780.617 406.702 780.962 412.189C781.308 417.675 782.883 423.014 785.572 427.808L786.586 441.159C794.586 437.317 801.658 431.787 807.315 424.949C812.971 418.111 817.078 410.128 819.353 401.55C820.581 396.725 821.197 391.765 821.185 386.786C813.737 388.789 805.817 390 805.817 390Z" fill="#FFBCD9"/>
<path id="Vector_61" d="M770.876 507.856C764.974 509.212 759.817 510 759.817 510L768.95 502.77C766.883 496.718 765.759 490.625 767.101 484.329C760.167 489.883 754.541 496.897 750.623 504.871C746.706 512.845 744.593 521.584 744.434 530.467C744.276 539.35 746.076 548.159 749.707 556.268C753.337 564.377 758.709 571.586 765.441 577.384L769.981 564.788C773.853 560.885 776.796 556.161 778.593 550.966C780.39 545.771 780.995 540.237 780.363 534.776C779.214 525.466 774.49 516.658 770.876 507.856Z" fill="#FFBCD9"/>
<path id="Vector_62" d="M764.627 361.258C761.515 363.99 758.573 366.91 755.817 370L760.533 359.113C758.762 358.432 756.865 358.144 754.972 358.269C753.08 358.395 751.237 358.931 749.572 359.84C745.683 362.12 743.355 366.552 742.915 371.038C742.627 375.565 743.6 380.082 745.727 384.089C749.392 391.444 755.348 397.409 762.698 401.084C766.299 395.53 769.677 389.689 771.115 383.231C772.576 376.669 771.777 369.306 767.583 364.051C766.728 362.991 765.734 362.051 764.627 361.258Z" fill="#FFBCD9"/>
<path id="Vector_63" d="M837.817 481L851.538 470.137C852.67 463.98 852.829 457.683 852.008 451.476C842.788 466.498 821.249 467.7 807.627 478.885C803.405 482.406 800.03 486.832 797.751 491.835C795.472 496.837 794.349 502.289 794.463 507.785L789.071 520.04C797.937 520.418 806.78 518.87 814.99 515.501C823.2 512.132 830.583 507.024 836.629 500.527C842.346 494.24 846.675 486.82 849.335 478.749C843.244 480.17 837.817 481 837.817 481Z" fill="#FFBCD9"/>
<path id="Vector_64" d="M762.757 574.91C760.137 578.29 757.36 581.543 754.427 584.67C755.517 585 756.577 585.32 757.617 585.64C760.187 582.85 762.637 579.96 764.967 576.97C765.357 576.47 765.747 575.96 766.137 575.44C770.385 569.85 774.216 563.954 777.597 557.8C784.124 545.966 788.971 533.281 791.997 520.11C792.057 519.88 792.107 519.66 792.157 519.43C792.967 515.81 793.637 512.15 794.157 508.48C794.267 507.74 794.367 506.99 794.467 506.25C794.717 504.22 794.927 502.19 795.097 500.16C795.712 492.76 795.732 485.323 795.157 477.92C794.172 465.259 791.53 452.783 787.297 440.81C786.997 439.96 786.697 439.11 786.367 438.27C786.187 437.77 785.997 437.27 785.807 436.77C780.712 423.599 773.722 411.242 765.057 400.09C764.737 399.68 764.417 399.28 764.097 398.88C763.337 397.93 762.567 396.99 761.787 396.06C761.659 395.898 761.494 395.769 761.306 395.683C761.118 395.597 760.912 395.558 760.706 395.567C760.5 395.577 760.299 395.636 760.12 395.739C759.941 395.842 759.789 395.987 759.677 396.16C759.429 396.437 759.291 396.795 759.287 397.166C759.283 397.538 759.415 397.898 759.657 398.18C760.287 398.93 760.917 399.69 761.517 400.46C762.267 401.37 762.987 402.3 763.687 403.24C779.135 423.612 788.814 447.767 791.707 473.17C793.441 488.825 792.497 504.661 788.917 520H788.907C786.769 529.242 783.703 538.244 779.757 546.87C778.967 548.59 778.144 550.293 777.287 551.98C775.067 556.37 772.617 560.639 769.947 564.77C767.707 568.26 765.31 571.64 762.757 574.91Z" fill="#3F3D56"/>
<path id="Vector_65" d="M736.284 589.333C749.351 587.055 762.768 587.829 775.486 591.596C777.341 592.144 778.134 589.25 776.283 588.703C763.041 584.81 749.078 584.036 735.486 586.44C733.588 586.774 734.393 589.666 736.284 589.333Z" fill="#CCCCCC"/>
</g>
<defs>
<clipPath id="clip0_122_15027">
<rect width="852.527" height="679.172" fill="white"/>
</clipPath>
</defs>
</svg>
