<svg fill="none" height="60" viewBox="0 0 206 60" width="206" xmlns="http://www.w3.org/2000/svg" xmlns:xlink="http://www.w3.org/1999/xlink"><clipPath id="a"><path d="m144 0h24v24h-24z"/></clipPath><clipPath id="b"><path d="m108 0h24v24h-24z"/></clipPath><clipPath id="c"><path d="m0 0h24v24h-24z"/></clipPath><mask height="12" maskUnits="userSpaceOnUse" width="18" x="184" y="6"><path clip-rule="evenodd" d="m193 6c-5.351 0-8.807 5.5267-8.87 5.6273-.084.106-.13.2374-.13.3727 0 .1161.034.2297.097.327.001.0011.002.0023.003.0035.01.0213 2.911 5.6695 8.9 5.6695 5.963 0 8.86-5.5928 8.896-5.6613.002-.0039.004-.0078.007-.0117.063-.0973.097-.2109.097-.327 0-.1348-.045-.2657-.129-.3715 0-.0004-.001-.0008-.001-.0012-.063-.1006-3.519-5.6273-8.87-5.6273zm0 1.8c2.32 0 4.2 1.8804 4.2 4.2s-1.88 4.2-4.2 4.2-4.2-1.8804-4.2-4.2 1.88-4.2 4.2-4.2zm0 2.4c-.994 0-1.8.8059-1.8 1.8s.806 1.8 1.8 1.8 1.8-.8059 1.8-1.8-.806-1.8-1.8-1.8z" fill="#fff" fill-rule="evenodd"/></mask><mask height="19" maskUnits="userSpaceOnUse" width="18" x="111" y="38"><path clip-rule="evenodd" d="m120 39.5c-4.143 0-7.5 3.3579-7.5 7.5004 0 4.142 3.358 7.5003 7.5 7.5003s7.5-3.3585 7.5-7.5003c0-4.1424-3.358-7.5004-7.5-7.5004zm0-1.5c4.97 0 9 4.0296 9 9.0004 0 4.97-4.03 9.0003-9 9.0003-4.971 0-9-4.0303-9-9.0003 0-4.9708 4.029-9.0004 9-9.0004zm-.528 3.7082c0-.4201.341-.7611.761-.7611.421 0 .761.341.761.7611v7.2274h-5.392c-.421 0-.761-.3405-.761-.7611 0-.4207.34-.7611.761-.7611h3.87z" fill="#fff" fill-rule="evenodd"/></mask><g fill="#585959"><path clip-rule="evenodd" d="m84 37.75c-5.1086 0-9.25 4.1414-9.25 9.25s4.1414 9.25 9.25 9.25 9.25-4.1414 9.25-9.25-4.1414-9.25-9.25-9.25zm-10.75 9.25c0-5.9371 4.8129-10.75 10.75-10.75s10.75 4.8129 10.75 10.75-4.8129 10.75-10.75 10.75-10.75-4.8129-10.75-10.75z" fill-rule="evenodd"/><path clip-rule="evenodd" d="m193 6c-5.351 0-8.807 5.5267-8.87 5.6273-.084.106-.13.2374-.13.3727 0 .1161.034.2297.097.327.001.0011.002.0023.003.0035.01.0213 2.911 5.6695 8.9 5.6695 5.963 0 8.86-5.5928 8.896-5.6613.002-.0039.004-.0078.007-.0117.063-.0973.097-.2109.097-.327 0-.1348-.045-.2657-.129-.3715 0-.0004-.001-.0008-.001-.0012-.063-.1006-3.519-5.6273-8.87-5.6273zm0 1.8c2.32 0 4.2 1.8804 4.2 4.2s-1.88 4.2-4.2 4.2-4.2-1.8804-4.2-4.2 1.88-4.2 4.2-4.2zm0 2.4c-.994 0-1.8.8059-1.8 1.8s.806 1.8 1.8 1.8 1.8-.8059 1.8-1.8-.806-1.8-1.8-1.8z" fill-rule="evenodd"/><path clip-rule="evenodd" d="m48 37.75c-5.1086 0-9.25 4.1414-9.25 9.25s4.1414 9.25 9.25 9.25 9.25-4.1414 9.25-9.25-4.1414-9.25-9.25-9.25zm-10.75 9.25c0-5.9371 4.8129-10.75 10.75-10.75s10.75 4.8129 10.75 10.75-4.8129 10.75-10.75 10.75-10.75-4.8129-10.75-10.75z" fill-rule="evenodd"/><circle cx="48" cy="47" r="7.5"/><path d="m80.347 22.6802c.4101 0 .7324-.1011.9667-.3032.2344-.2022.3516-.4846.3516-.8472l-.1953-10.0146c0-.1546.0374-.2898.1123-.4058.0749-.1159.1872-.2036.3369-.263.4297-.1724.7796-.3612 1.0498-.5663s.4639-.46818.5811-.78923c.1172-.32103.166-.74313.1465-1.2663l-.2735-5.47548c-.0195-.41022-.2441-.61532-.6738-.61532-.1888 0-.3386.05499-.4492.16497-.1107.10999-.166.26605-.166.46818l.0683 5.32388c0 .16051-.0504.28536-.1513.37454-.101.08918-.2295.13376-.3858.13376-.1693 0-.306-.0431-.4102-.1293-.1041-.0862-.1562-.20362-.1562-.35225l-.0977-5.51115c-.0065-.19024-.0667-.33887-.1806-.44588-.114-.10701-.2718-.16052-.4736-.16052-.1954 0-.3516.05351-.4688.16052s-.1758.25564-.1758.44588l-.0976 5.51115c0 .14863-.0538.26605-.1612.35225s-.2425.1293-.4052.1293c-.3646 0-.5469-.16943-.5469-.5083l.0683-5.32388c0-.20213-.0537-.35819-.1611-.46818-.1074-.10998-.2588-.16497-.4541-.16497-.2018 0-.3613.0535-.4785.16051-.1172.10702-.1823.25862-.1953.45481l-.2637 5.47548c-.026.52317.0195.94527.1367 1.2663.1172.32105.3109.58413.5811.78923s.6201.3939 1.0498.5663c.1562.0594.2702.1471.3418.263.0716.116.1074.2512.1074.4058l-.1855 10.0146c-.0066.3626.1074.645.3418.8472.2343.2021.5566.3032.9668.3032zm7.6464-7.7762-.2148 6.5812c-.013.3865.1009.6822.3418.8873s.5631.3077.9668.3077c.4101 0 .7356-.0936.9765-.2809s.3614-.4593.3614-.816v-18.91447c0-.22592-.0716-.39387-.2149-.50385-.1432-.10999-.306-.16498-.4883-.16498s-.3418.04756-.4785.14268c-.1367.09513-.2864.24673-.4492.45481-.3906.50534-.7454 1.10728-1.0644 1.80584-.3191.69855-.5941 1.4625-.8252 2.29184-.2312.82935-.4086 1.68991-.5323 2.58168-.1237.89175-.1855 1.78355-.1855 2.67525v.4371c0 .3091.0618.5766.1855.8026.1237.2259.306.4131.5469.5618l.5859.3566c.1693.113.2947.2334.376.3612.0814.1278.1188.272.1123.4326z"/></g><g clip-path="url(#a)"><path clip-rule="evenodd" d="m165.6 12.0004c0 5.3019-4.298 9.6-9.6 9.6s-9.6-4.2981-9.6-9.6c0-5.30194 4.298-9.60001 9.6-9.60001s9.6 4.29807 9.6 9.60001zm-7.2-3.60001c0 1.32548-1.075 2.40001-2.4 2.40001-1.326 0-2.4-1.07453-2.4-2.40001s1.074-2.4 2.4-2.4c1.325 0 2.4 1.07452 2.4 2.4zm-2.4 4.80001c-2.421 0-4.507 1.4339-5.456 3.4989 1.321 1.5315 3.275 2.5011 5.456 2.5011s4.135-.9695 5.455-2.5011c-.948-2.0649-3.034-3.4989-5.455-3.4989z" fill="#585959" fill-rule="evenodd"/></g><g clip-path="url(#b)"><path clip-rule="evenodd" d="m111.806 6.20569c1.874-1.87451 4.913-1.87451 6.788 0l1.406 1.40589 1.406-1.40589c1.874-1.87451 4.913-1.87451 6.788 0 1.875 1.87452 1.875 4.91371 0 6.78821l-8.194 8.1941-8.194-8.1941c-1.875-1.8745-1.875-4.91369 0-6.78821z" fill="#585959" fill-rule="evenodd"/></g><path d="m37.5674 5.37695c0 .43946.3779.81739.8086.81739h2.7685l1.3711 9.33396c.1934 1.3184.8965 2.127 2.2324 2.127h10.2305c.4131 0 .7735-.3164.7735-.7735 0-.457-.3604-.7734-.7735-.7734h-10.0371c-.4307 0-.6943-.3076-.7559-.7559l-.1406-.914h11.0039c1.336 0 2.0391-.8174 2.2412-2.1446l.6592-4.42085c.0176-.12305.0352-.27246.0352-.36035 0-.50977-.3604-.85254-.958-.85254h-14.1065l-.1406-.9668c-.1055-.75586-.4043-1.14258-1.3799-1.14258h-3.0234c-.4307 0-.8086.37793-.8086.82617zm6.3721 15.15235c0 .8437.6767 1.5205 1.5205 1.5205.8525 0 1.5205-.6768 1.5205-1.5205 0-.8525-.668-1.5293-1.5205-1.5293-.8438 0-1.5205.6768-1.5205 1.5293zm8.121 0c0 .8437.6856 1.5205 1.5293 1.5205.8526 0 1.5293-.6768 1.5293-1.5205 0-.8525-.6767-1.5293-1.5293-1.5293-.8437 0-1.5293.6768-1.5293 1.5293z" fill="#585959"/><g clip-path="url(#c)"><path d="m12.8484 2.75186c-.4686-.46863-1.2284-.46863-1.697 0l-8.40003 8.40004c-.46862.4686-.46862 1.2284 0 1.697.46863.4686 1.22843.4686 1.69706 0l.35147-.3515v7.903c0 .6627.53726 1.2 1.2 1.2h2.4c.66274 0 1.2-.5373 1.2-1.2v-2.4c0-.6628.5373-1.2 1.2-1.2h2.4c.6627 0 1.2.5372 1.2 1.2v2.4c0 .6627.5373 1.2 1.2 1.2h2.4c.6627 0 1.2-.5373 1.2-1.2v-7.903l.3515.3515c.4686.4686 1.2284.4686 1.697 0 .4687-.4686.4687-1.2284 0-1.697z" fill="#585959"/></g><path d="m15.9081 38.8778-.0002.0002-12.16993 12.1055c-.01659.0165-.02908.0366-.03649.0588l-1.71632 5.1391c-.1697.5081.31362.9918.8219.8226l5.13877-1.7113c.02099-.007.04017-.0185.05618-.0338l.12891-.1231.00002.0001.00213-.0022 12.05273-11.9765.0009-.0009c.5989-.6049.9867-1.3439.9867-2.1387s-.3878-1.5338-.9867-2.1388l-.0011-.001c-.6043-.5983-1.3433-.9926-2.1387-.9926-.7955 0-1.5344.3943-2.1388.9926zm-10.62085 13.1019 9.75335-9.7013 1.7276 1.7328-9.75913 9.7013-2.58816.861z" fill="#585959" stroke="#585959" stroke-linecap="round" stroke-linejoin="round" stroke-width=".3"/><path d="m193.307 51.863c.264-.0071.49-.1047.694-.3078l5.742-5.8522c.166-.173.257-.3763.257-.6249.001-.5047-.39-.8971-.895-.8978-.241-.0004-.467.0972-.641.2702l-5.153 5.2654-5.138-5.2813c-.173-.1736-.391-.2719-.639-.2722-.505-.0008-.898.3903-.898.8951-.001.241.089.4521.255.6256l5.731 5.87c.196.2112.422.3095.685.3099z" fill="#585959"/><path d="m161.707 47.2933c-.391-.391-1.023-.391-1.414 0l-1.594 1.5939c-.739-.22-2.118-.72-2.992-1.5939-.874-.874-1.374-2.2531-1.594-2.9921l1.594-1.594c.391-.391.391-1.023 0-1.4139l-4-4.0001c-.391-.391-1.023-.391-1.414 0l-2.712 2.7121c-.38.38-.594.9019-.586 1.4349.023 1.4241.4 6.3701 4.298 10.2681s8.844 4.274 10.269 4.298h.028c.528 0 1.027-.208 1.405-.5861l2.712-2.7119c.391-.391.391-1.023 0-1.414zm-.127 6.7119c-1.248-.021-5.518-.3559-8.873-3.7119-3.366-3.3661-3.692-7.651-3.712-8.874l2.005-2.005 2.586 2.5859-1.293 1.2931c-.239.2379-.341.5819-.272.9119.024.115.611 2.842 2.271 4.502s4.387 2.247 4.502 2.271c.333.071.674-.032.912-.271l1.294-1.293 2.586 2.586z" fill="#585959"/><path clip-rule="evenodd" d="m120 39.5c-4.143 0-7.5 3.3579-7.5 7.5004 0 4.142 3.358 7.5003 7.5 7.5003s7.5-3.3585 7.5-7.5003c0-4.1424-3.358-7.5004-7.5-7.5004zm0-1.5c4.97 0 9 4.0296 9 9.0004 0 4.97-4.03 9.0003-9 9.0003-4.971 0-9-4.0303-9-9.0003 0-4.9708 4.029-9.0004 9-9.0004zm-.528 3.7082c0-.4201.341-.7611.761-.7611.421 0 .761.341.761.7611v7.2274h-5.392c-.421 0-.761-.3405-.761-.7611 0-.4207.34-.7611.761-.7611h3.87z" fill="#585959" fill-rule="evenodd"/></svg>