<svg width="855" height="664" viewBox="0 0 855 664" fill="none" xmlns="http://www.w3.org/2000/svg">
<g id="snowfun" clip-path="url(#clip0_130_15199)">
<path id="Vector" d="M613.187 662.371H541.285V606.8H382.172C381.382 606.8 380.606 606.592 379.922 606.197C379.238 605.802 378.67 605.234 378.275 604.549C377.88 603.865 377.672 603.089 377.672 602.3C377.672 601.51 377.88 600.734 378.275 600.05L431.789 507.36L432.69 507.786L432.531 508.211C437.296 509.938 477.608 524.151 532.696 531.419C553.749 534.215 574.961 535.638 596.199 535.679C649.156 535.679 696.86 526.435 737.985 508.204L738.396 508.022L791.529 600.05C791.923 600.734 792.131 601.51 792.131 602.3C792.131 603.089 791.923 603.865 791.528 604.549C791.133 605.234 790.565 605.802 789.881 606.197C789.197 606.592 788.421 606.8 787.631 606.8H613.187V662.371Z" fill="#F2F2F2"/>
<path id="Vector_2" d="M591.119 226.761C564.893 226.616 538.798 223.056 513.491 216.172L512.882 215.992L523.03 200.415H491.225C490.435 200.415 489.659 200.207 488.975 199.812C488.291 199.417 487.723 198.849 487.328 198.165C486.933 197.481 486.725 196.705 486.725 195.915C486.725 195.125 486.932 194.349 487.327 193.665L531.561 117.05L532.434 117.538L532.226 117.92C548.704 125.744 566.711 129.818 584.952 129.851C601.836 129.912 618.49 125.945 633.533 118.279L633.112 115.466C582.773 141.27 534.29 115.99 532.245 114.898L531.789 114.655L584.901 24.6614L682.477 193.665C682.872 194.349 683.08 195.125 683.079 195.915C683.079 196.705 682.872 197.481 682.477 198.165C682.082 198.849 681.514 199.417 680.829 199.812C680.145 200.207 679.369 200.415 678.58 200.415H646.774L656.901 215.958L656.349 216.165C635.209 224.111 612.287 226.761 591.119 226.761Z" fill="#F2F2F2"/>
<path id="Vector_3" d="M596.176 532.762C575.002 532.726 553.853 531.308 532.863 528.517C475.914 521.009 434.281 507.878 432.536 507.237L431.978 507.033L459.016 460.202H433.809C433.019 460.202 432.243 459.994 431.559 459.6C430.875 459.205 430.307 458.637 429.912 457.952C429.517 457.268 429.309 456.492 429.309 455.702C429.309 454.912 429.517 454.137 429.912 453.452L499.034 333.727H453.857C453.067 333.727 452.291 333.519 451.607 333.124C450.923 332.73 450.355 332.161 449.96 331.477C449.565 330.793 449.357 330.017 449.357 329.227C449.357 328.437 449.565 327.661 449.96 326.977L459.52 310.419L460.399 310.896L460.197 311.292C463.777 313.017 488.553 324.432 528.697 330.322C545.003 332.682 561.458 333.853 577.934 333.827C620.916 333.827 664.682 326.235 708.03 311.26L707.73 310.394C631.768 336.635 568.583 333.238 528.923 327.428C486.425 321.206 461.263 308.804 460.213 308.279L459.738 308.042L512.752 218.139L513.488 219.115C538.769 226.01 564.842 229.571 591.046 229.706C615.589 229.706 637.553 226.155 656.338 219.149L656.14 218.625L657.041 218.199L719.844 326.977C720.239 327.661 720.447 328.437 720.447 329.227C720.447 330.017 720.239 330.793 719.844 331.477C719.449 332.162 718.881 332.73 718.197 333.125C717.512 333.52 716.736 333.727 715.946 333.727H670.768L712.708 404.367L712.139 404.567C644.256 428.429 579.6 427.088 537.314 421.759C494.079 416.309 464.608 407.698 460.59 406.198L460.256 407.052C464.272 408.554 493.753 419.185 537.137 424.66C554.246 426.811 571.473 427.893 588.717 427.9C632.325 427.9 674.068 420.975 712.785 407.317L713.177 407.179L739.893 453.452C740.288 454.136 740.496 454.912 740.496 455.702C740.496 456.492 740.288 457.268 739.893 457.952C739.498 458.636 738.93 459.204 738.246 459.599C737.562 459.994 736.786 460.202 735.996 460.202H710.787L737.935 505.221L737.426 505.447C690.295 526.297 640.19 532.762 596.176 532.762Z" fill="#F2F2F2"/>
<path id="Vector_4" d="M690.758 369.831C700.475 369.831 708.351 361.954 708.351 352.238C708.351 342.522 700.475 334.646 690.758 334.646C681.042 334.646 673.166 342.522 673.166 352.238C673.166 361.954 681.042 369.831 690.758 369.831Z" fill="#E6E6E6"/>
<path id="Vector_5" d="M679.137 351.679L674.581 344.622L675.505 344.025L679.423 350.095L687.467 344.119L694.659 351.208L701.73 345.059L708.213 352.513L707.384 353.235L701.622 346.61L694.613 352.706L687.366 345.563L679.137 351.679Z" fill="#CCCCCC"/>
<path id="Vector_6" d="M705.729 361.887L699.921 355.209L692.908 361.308L685.665 354.169L677.447 360.275L672.933 353.281L673.738 352.762L677.696 358.896L685.752 352.91L692.949 360.003L700.015 353.857L706.452 361.258L705.729 361.887Z" fill="#CCCCCC"/>
<path id="Vector_7" d="M691.763 321.998L690.846 335.16L691.943 335.237L692.86 322.074L691.763 321.998Z" fill="#CCCCCC"/>
<path id="Vector_8" d="M456.012 377.496C465.728 377.496 473.605 369.62 473.605 359.904C473.605 350.187 465.728 342.311 456.012 342.311C446.296 342.311 438.42 350.187 438.42 359.904C438.42 369.62 446.296 377.496 456.012 377.496Z" fill="#E6E6E6"/>
<path id="Vector_9" d="M444.39 359.344L439.835 352.287L440.759 351.69L444.677 357.761L452.721 351.784L459.913 358.873L466.984 352.724L473.467 360.178L472.638 360.9L466.876 354.275L459.867 360.371L452.62 353.228L444.39 359.344Z" fill="#CCCCCC"/>
<path id="Vector_10" d="M470.983 369.552L465.175 362.874L458.161 368.973L450.918 361.834L442.701 367.94L438.187 360.946L438.992 360.427L442.95 366.561L451.006 360.575L458.203 367.668L465.269 361.522L471.706 368.923L470.983 369.552Z" fill="#CCCCCC"/>
<path id="Vector_11" d="M457.016 329.664L456.099 342.827L457.195 342.903L458.112 329.741L457.016 329.664Z" fill="#CCCCCC"/>
<g id="sun">
<path id="Vector_12" d="M567.158 186.825C576.874 186.825 584.75 178.948 584.75 169.232C584.75 159.516 576.874 151.639 567.158 151.639C557.441 151.639 549.565 159.516 549.565 169.232C549.565 178.948 557.441 186.825 567.158 186.825Z" fill="#E6E6E6"/>
<path id="Vector_13" d="M555.535 168.673L550.98 161.615L551.904 161.019L555.822 167.089L563.866 161.113L571.058 168.202L578.129 162.052L584.612 169.507L583.783 170.228L578.021 163.603L571.012 169.699L563.765 162.556L555.535 168.673Z" fill="#CCCCCC"/>
<path id="Vector_14" d="M582.128 178.881L576.32 172.203L569.306 178.301L562.064 171.163L553.846 177.269L549.332 170.275L550.137 169.755L554.095 175.889L562.151 169.903L569.348 176.997L576.414 170.851L582.851 178.252L582.128 178.881Z" fill="#CCCCCC"/>
</g>
<path id="Vector_15" d="M568.162 138.992L567.245 152.154L568.342 152.23L569.259 139.068L568.162 138.992Z" fill="#CCCCCC"/>
<path id="Vector_16" d="M674.47 501.097C684.186 501.097 692.062 493.221 692.062 483.505C692.062 473.789 684.186 465.912 674.47 465.912C664.754 465.912 656.877 473.789 656.877 483.505C656.877 493.221 664.754 501.097 674.47 501.097Z" fill="#E6E6E6"/>
<path id="Vector_17" d="M662.848 482.945L658.293 475.888L659.217 475.291L663.135 481.362L671.178 475.385L678.371 482.475L685.441 476.325L691.925 483.779L691.095 484.501L685.333 477.876L678.325 483.972L671.078 476.829L662.848 482.945Z" fill="#CCCCCC"/>
<path id="Vector_18" d="M689.441 493.153L683.632 486.475L676.619 492.574L669.376 485.435L661.158 491.542L656.644 484.547L657.449 484.028L661.408 490.162L669.464 484.176L676.66 491.269L683.726 485.123L690.164 492.524L689.441 493.153Z" fill="#CCCCCC"/>
<path id="Vector_19" d="M675.474 453.264L674.557 466.427L675.654 466.503L676.571 453.341L675.474 453.264Z" fill="#CCCCCC"/>
<path id="Vector_20" d="M476.133 566.251C485.849 566.251 493.726 558.375 493.726 548.659C493.726 538.943 485.849 531.066 476.133 531.066C466.417 531.066 458.541 538.943 458.541 548.659C458.541 558.375 466.417 566.251 476.133 566.251Z" fill="#E6E6E6"/>
<path id="Vector_21" d="M464.511 548.099L459.956 541.042L460.88 540.445L464.798 546.516L472.842 540.539L480.034 547.629L487.105 541.479L493.588 548.933L492.759 549.655L486.997 543.03L479.988 549.126L472.741 541.983L464.511 548.099Z" fill="#CCCCCC"/>
<path id="Vector_22" d="M491.104 558.307L485.296 551.629L478.282 557.728L471.039 550.589L462.822 556.696L458.308 549.701L459.113 549.182L463.071 555.316L471.127 549.33L478.324 556.423L485.39 550.277L491.827 557.678L491.104 558.307Z" fill="#CCCCCC"/>
<path id="Vector_23" d="M477.136 518.42L476.219 531.582L477.316 531.659L478.233 518.496L477.136 518.42Z" fill="#CCCCCC"/>
<g id="light2">
<path id="Vector_24" d="M616.023 289.346C625.739 289.346 633.615 281.47 633.615 271.754C633.615 262.038 625.739 254.161 616.023 254.161C606.307 254.161 598.43 262.038 598.43 271.754C598.43 281.47 606.307 289.346 616.023 289.346Z" fill="#E6E6E6"/>
<path id="Vector_25" d="M604.401 271.195L599.845 264.137L600.77 263.541L604.688 269.611L612.731 263.634L619.924 270.724L626.994 264.574L633.478 272.029L632.648 272.75L626.886 266.125L619.878 272.221L612.631 265.078L604.401 271.195Z" fill="#CCCCCC"/>
<path id="Vector_26" d="M630.994 281.403L625.185 274.724L618.172 280.823L610.929 273.684L602.711 279.791L598.197 272.797L599.002 272.277L602.961 278.411L611.017 272.425L618.213 279.519L625.279 273.372L631.717 280.774L630.994 281.403Z" fill="#CCCCCC"/>
</g>
<path id="Vector_27" d="M617.027 241.513L616.11 254.676L617.207 254.752L618.124 241.59L617.027 241.513Z" fill="#CCCCCC"/>
<path id="Vector_28" d="M566.199 462.771C575.915 462.771 583.792 454.895 583.792 445.179C583.792 435.463 575.915 427.586 566.199 427.586C556.483 427.586 548.607 435.463 548.607 445.179C548.607 454.895 556.483 462.771 566.199 462.771Z" fill="#E6E6E6"/>
<path id="Vector_29" d="M554.577 444.619L550.022 437.562L550.946 436.965L554.864 443.036L562.908 437.059L570.1 444.149L577.171 437.999L583.654 445.453L582.825 446.175L577.063 439.55L570.054 445.646L562.807 438.503L554.577 444.619Z" fill="#CCCCCC"/>
<path id="Vector_30" d="M581.17 454.827L575.362 448.149L568.348 454.248L561.105 447.109L552.888 453.216L548.374 446.221L549.179 445.702L553.137 451.836L561.193 445.85L568.39 452.943L575.456 446.797L581.893 454.198L581.17 454.827Z" fill="#CCCCCC"/>
<path id="Vector_31" d="M567.203 414.938L566.287 428.101L567.384 428.177L568.3 415.014L567.203 414.938Z" fill="#CCCCCC"/>
<path id="start" d="M595.019 40.1139C594.478 40.1119 593.951 39.9331 593.52 39.6047L584.623 32.9284C584.369 32.7378 584.062 32.6325 583.745 32.6277C583.429 32.6228 583.118 32.7187 582.859 32.9015L573.76 39.3C573.328 39.6035 572.811 39.7626 572.284 39.7544C571.756 39.7462 571.244 39.5712 570.822 39.2543C570.4 38.9375 570.088 38.4952 569.933 37.9907C569.778 37.4862 569.786 36.9455 569.956 36.446L573.557 25.9206C573.66 25.6209 573.665 25.2962 573.572 24.9933C573.479 24.6904 573.292 24.4248 573.038 24.235L564.141 17.5588C563.718 17.2419 563.407 16.7995 563.252 16.2949C563.096 15.7903 563.105 15.2494 563.276 14.7499C563.447 14.2503 563.771 13.8177 564.203 13.514C564.635 13.2103 565.152 13.0511 565.68 13.0592L576.802 13.2311C577.119 13.2366 577.43 13.1413 577.689 12.9591C577.948 12.7768 578.142 12.517 578.244 12.217L581.845 1.69158C582.006 1.18586 582.328 0.746765 582.762 0.441413C583.196 0.136061 583.719 -0.0187503 584.249 0.000647471C584.778 0.00310858 585.293 0.176077 585.716 0.493926C586.14 0.811775 586.45 1.25759 586.6 1.7653L589.874 12.3966C589.966 12.6997 590.153 12.9654 590.406 13.1556C590.66 13.3458 590.967 13.4505 591.284 13.4547L602.406 13.6266C602.934 13.6348 603.446 13.8099 603.868 14.1268C604.291 14.4437 604.602 14.8861 604.757 15.3907C604.912 15.8953 604.904 16.4361 604.733 16.9357C604.562 17.4352 604.238 17.8678 603.806 18.1715L594.707 24.5695C594.447 24.7514 594.252 25.011 594.149 25.3108C594.047 25.6106 594.042 25.9353 594.136 26.238L597.41 36.8698C597.571 37.374 597.566 37.9168 597.394 38.4177C597.223 38.9186 596.895 39.3509 596.458 39.6506C596.038 39.95 595.535 40.1118 595.019 40.1139Z" fill="#CCCCCC"/>
<g id="sled">
<path id="Vector_32" d="M295.252 627.139H278.752C277.521 627.137 276.304 626.884 275.174 626.394C274.045 625.905 273.027 625.19 272.184 624.293C271.337 623.395 270.686 622.332 270.27 621.17C269.855 620.008 269.685 618.772 269.771 617.541C269.966 615.227 271.031 613.073 272.752 611.513C274.473 609.954 276.721 609.105 279.043 609.139H282.752V589.139H304.752V617.639C304.749 620.158 303.747 622.573 301.966 624.354C300.185 626.134 297.771 627.136 295.252 627.139Z" fill="#CCCCCC"/>
<path id="Vector_33" d="M277.169 539.243L257.268 537.249C254.368 536.956 251.702 535.523 249.857 533.265C248.012 531.008 247.139 528.11 247.43 525.209C247.72 522.307 249.151 519.64 251.407 517.793C253.663 515.946 256.56 515.071 259.461 515.358L279.362 517.352C281.526 517.569 283.578 518.423 285.258 519.806C286.937 521.189 288.169 523.039 288.797 525.122C289.425 527.205 289.421 529.427 288.786 531.508C288.151 533.589 286.913 535.435 285.229 536.813C284.734 537.218 284.204 537.581 283.645 537.895C281.678 539.003 279.415 539.474 277.169 539.243Z" fill="#CCCCCC"/>
<path id="Vector_34" d="M227.022 523.164C227.16 521.792 227.566 520.46 228.218 519.245C228.87 518.03 229.755 516.956 230.822 516.083C231.89 515.21 233.119 514.556 234.439 514.157C235.759 513.759 237.145 513.625 238.517 513.763L239.66 513.689L237.895 511.979C237.659 511.751 237.471 511.478 237.34 511.177C237.21 510.875 237.14 510.551 237.135 510.223C237.13 509.895 237.189 509.569 237.31 509.264C237.431 508.958 237.611 508.68 237.839 508.444C238.068 508.208 238.34 508.02 238.642 507.89C238.943 507.759 239.267 507.689 239.595 507.684C239.923 507.679 240.249 507.739 240.555 507.859C240.86 507.98 241.138 508.16 241.374 508.388L246.396 513.254L253.995 512.764C254.535 512.729 255.077 512.804 255.587 512.985C256.098 513.166 256.566 513.448 256.964 513.815C257.362 514.182 257.681 514.626 257.903 515.12C258.124 515.614 258.243 516.148 258.252 516.689L258.551 534.671C258.561 535.278 258.433 535.879 258.176 536.43C257.919 536.98 257.54 537.465 257.068 537.847C256.596 538.229 256.043 538.498 255.451 538.635C254.859 538.771 254.244 538.771 253.652 538.635L236.423 534.658C233.652 534.381 231.105 533.014 229.342 530.858C227.579 528.702 226.745 525.935 227.022 523.164Z" fill="#3F3D56"/>
<path id="Vector_35" d="M306.752 603.639C329.672 603.639 348.252 581.254 348.252 553.639C348.252 526.025 329.672 503.639 306.752 503.639C283.832 503.639 265.252 526.025 265.252 553.639C265.252 581.254 283.832 603.639 306.752 603.639Z" fill="#E6E6E6"/>
<path id="Vector_36" d="M283.252 553.639C284.909 553.639 286.252 551.356 286.252 548.539C286.252 545.723 284.909 543.439 283.252 543.439C281.595 543.439 280.252 545.723 280.252 548.539C280.252 551.356 281.595 553.639 283.252 553.639Z" fill="#3F3D56"/>
<path id="Vector_37" d="M282.252 567.839C283.909 567.839 285.252 565.556 285.252 562.739C285.252 559.923 283.909 557.639 282.252 557.639C280.595 557.639 279.252 559.923 279.252 562.739C279.252 565.556 280.595 567.839 282.252 567.839Z" fill="#3F3D56"/>
<path id="Vector_38" d="M306.252 514.639C323.925 514.639 338.252 500.313 338.252 482.639C338.252 464.966 323.925 450.639 306.252 450.639C288.579 450.639 274.252 464.966 274.252 482.639C274.252 500.313 288.579 514.639 306.252 514.639Z" fill="#E6E6E6"/>
<path id="Vector_39" d="M333.252 473.139H280.252C278.529 473.137 276.876 472.452 275.658 471.233C274.439 470.015 273.754 468.363 273.752 466.639V461.639C273.752 444.797 290.802 429.139 309.252 429.139C327.701 429.139 338.752 444.797 338.752 461.639V467.639C338.75 469.098 338.17 470.496 337.139 471.527C336.108 472.558 334.71 473.138 333.252 473.139Z" fill="#3F3D56"/>
<path id="Vector_40" d="M328.154 530.997L326.75 550.948C326.545 553.858 325.193 556.568 322.99 558.481C320.787 560.394 317.915 561.354 315.005 561.149C313.564 561.048 312.157 560.663 310.864 560.018C309.572 559.373 308.419 558.48 307.472 557.389C305.559 555.186 304.599 552.314 304.804 549.404L306.208 529.453C306.36 527.283 307.153 525.207 308.486 523.487C309.819 521.767 311.631 520.482 313.695 519.792C315.758 519.103 317.98 519.041 320.079 519.614C322.178 520.187 324.059 521.37 325.486 523.012C325.906 523.496 326.284 524.015 326.615 524.563C327.781 526.497 328.318 528.745 328.154 530.997Z" fill="#CCCCCC"/>
<path id="Vector_41" d="M313.565 581.598C312.19 581.501 310.847 581.134 309.613 580.518C308.379 579.902 307.279 579.05 306.375 578.008C305.471 576.967 304.781 575.759 304.344 574.451C303.907 573.143 303.732 571.762 303.828 570.386L303.721 569.246L302.064 571.06C301.843 571.304 301.576 571.501 301.278 571.641C300.981 571.781 300.659 571.861 300.33 571.876C300.002 571.892 299.673 571.842 299.364 571.73C299.055 571.619 298.771 571.447 298.528 571.225C298.285 571.004 298.089 570.736 297.949 570.438C297.81 570.141 297.731 569.818 297.716 569.49C297.702 569.161 297.752 568.833 297.865 568.524C297.977 568.215 298.149 567.932 298.372 567.689L303.087 562.525L302.372 554.944C302.321 554.405 302.38 553.862 302.546 553.346C302.711 552.831 302.98 552.354 303.335 551.946C303.69 551.537 304.124 551.204 304.612 550.969C305.099 550.733 305.629 550.598 306.17 550.573L324.134 549.742C324.741 549.714 325.346 549.824 325.904 550.065C326.461 550.306 326.957 550.67 327.353 551.131C327.749 551.591 328.034 552.136 328.188 552.724C328.342 553.311 328.361 553.926 328.241 554.521L324.777 571.861C324.581 574.639 323.29 577.225 321.188 579.051C319.085 580.877 316.343 581.793 313.565 581.598Z" fill="#3F3D56"/>
<path id="Vector_42" d="M310.252 437.639C314.67 437.639 318.252 434.058 318.252 429.639C318.252 425.221 314.67 421.639 310.252 421.639C305.834 421.639 302.252 425.221 302.252 429.639C302.252 434.058 305.834 437.639 310.252 437.639Z" fill="#FFBCD9"/>
<path id="Vector_43" d="M298.752 483.139C300.409 483.139 301.752 481.796 301.752 480.139C301.752 478.483 300.409 477.139 298.752 477.139C297.095 477.139 295.752 478.483 295.752 480.139C295.752 481.796 297.095 483.139 298.752 483.139Z" fill="#3F3D56"/>
<path id="Vector_44" d="M281.752 483.139C283.409 483.139 284.752 481.796 284.752 480.139C284.752 478.483 283.409 477.139 281.752 477.139C280.095 477.139 278.752 478.483 278.752 480.139C278.752 481.796 280.095 483.139 281.752 483.139Z" fill="#3F3D56"/>
<path id="Vector_45" d="M331.752 627.139H315.252C312.733 627.136 310.319 626.134 308.538 624.354C306.757 622.573 305.755 620.158 305.752 617.639V589.139H327.752V609.139H331.461C333.783 609.105 336.031 609.954 337.752 611.513C339.473 613.073 340.538 615.227 340.733 617.541C340.819 618.772 340.649 620.008 340.233 621.17C339.818 622.332 339.166 623.395 338.32 624.293C337.476 625.19 336.459 625.905 335.33 626.394C334.2 626.884 332.983 627.137 331.752 627.139Z" fill="#CCCCCC"/>
<path id="Vector_46" d="M186.132 548.276L172.903 533.276C170.974 531.088 169.992 528.223 170.175 525.311C170.358 522.399 171.69 519.679 173.878 517.75C176.066 515.82 178.931 514.838 181.842 515.021C184.754 515.204 187.474 516.536 189.404 518.724L202.632 533.724C204.071 535.356 204.994 537.377 205.284 539.534C205.574 541.69 205.218 543.884 204.261 545.837C203.304 547.791 201.79 549.418 199.909 550.511C198.027 551.604 195.864 552.114 193.693 551.978C193.054 551.939 192.419 551.844 191.796 551.694C189.6 551.168 187.621 549.973 186.132 548.276Z" fill="#CCCCCC"/>
<path id="Vector_47" d="M160.319 502.375C161.353 501.463 162.557 500.763 163.861 500.316C165.166 499.87 166.546 499.684 167.922 499.77C169.298 499.857 170.644 500.213 171.882 500.82C173.12 501.426 174.227 502.271 175.139 503.305L176.027 504.029L175.897 501.574C175.88 501.247 175.927 500.919 176.036 500.609C176.146 500.3 176.315 500.015 176.535 499.771C176.754 499.527 177.02 499.328 177.316 499.187C177.612 499.045 177.933 498.963 178.261 498.946C178.589 498.929 178.917 498.976 179.226 499.085C179.536 499.195 179.821 499.364 180.065 499.583C180.309 499.803 180.507 500.068 180.649 500.365C180.791 500.661 180.872 500.982 180.89 501.31L181.26 508.293L187.163 513.103C187.582 513.445 187.928 513.869 188.179 514.349C188.43 514.828 188.581 515.354 188.624 515.894C188.666 516.433 188.598 516.976 188.424 517.489C188.25 518.001 187.974 518.473 187.612 518.876L175.598 532.258C175.192 532.71 174.689 533.064 174.126 533.292C173.563 533.521 172.956 533.618 172.35 533.577C171.744 533.536 171.155 533.357 170.629 533.054C170.102 532.752 169.651 532.333 169.311 531.831L159.389 517.195C157.547 515.106 156.61 512.371 156.785 509.592C156.959 506.813 158.23 504.217 160.319 502.375Z" fill="#FFBCD9"/>
<path id="Vector_48" d="M195.092 613.957C201.203 610.745 202.199 600.612 197.316 591.323C192.434 582.035 183.522 577.109 177.411 580.321C171.301 583.533 170.305 593.667 175.187 602.955C180.07 612.244 188.981 617.169 195.092 613.957Z" fill="#CCCCCC"/>
<path id="Vector_49" d="M220.252 617.139C243.172 617.139 261.752 594.754 261.752 567.139C261.752 539.525 243.172 517.139 220.252 517.139C197.332 517.139 178.752 539.525 178.752 567.139C178.752 594.754 197.332 617.139 220.252 617.139Z" fill="#E6E6E6"/>
<path id="Vector_50" d="M209.382 617.312C215.622 614.358 217.04 604.275 212.55 594.791C208.06 585.306 199.362 580.012 193.122 582.966C186.882 585.92 185.464 596.003 189.954 605.488C194.444 614.972 203.142 620.266 209.382 617.312Z" fill="#CCCCCC"/>
<path id="Vector_51" d="M183.752 565.139C185.409 565.139 186.752 562.856 186.752 560.039C186.752 557.223 185.409 554.939 183.752 554.939C182.095 554.939 180.752 557.223 180.752 560.039C180.752 562.856 182.095 565.139 183.752 565.139Z" fill="#3F3D56"/>
<path id="Vector_52" d="M189.645 547.832C190.389 545.115 189.697 542.558 188.099 542.12C186.5 541.683 184.602 543.531 183.858 546.247C183.115 548.964 183.807 551.521 185.405 551.958C187.003 552.396 188.902 550.548 189.645 547.832Z" fill="#3F3D56"/>
<path id="Vector_53" d="M183.752 578.339C185.409 578.339 186.752 576.056 186.752 573.239C186.752 570.423 185.409 568.139 183.752 568.139C182.095 568.139 180.752 570.423 180.752 573.239C180.752 576.056 182.095 578.339 183.752 578.339Z" fill="#3F3D56"/>
<path id="Vector_54" d="M219.752 528.139C237.425 528.139 251.752 513.813 251.752 496.139C251.752 478.466 237.425 464.139 219.752 464.139C202.079 464.139 187.752 478.466 187.752 496.139C187.752 513.813 202.079 528.139 219.752 528.139Z" fill="#E6E6E6"/>
<path id="Vector_55" d="M246.752 486.639H193.752C192.029 486.637 190.376 485.952 189.158 484.733C187.939 483.515 187.254 481.863 187.252 480.139V475.139C187.252 458.297 201.302 424.639 219.752 424.639C238.201 424.639 252.252 458.297 252.252 475.139V481.139C252.25 482.598 251.67 483.996 250.639 485.027C249.608 486.058 248.21 486.638 246.752 486.639Z" fill="#FFBCD9"/>
<path id="Vector_56" d="M239.035 557.769C238.395 557.769 237.755 557.713 237.124 557.603C234.981 557.229 232.996 556.229 231.421 554.727C229.847 553.226 228.753 551.292 228.277 549.168C227.802 547.045 227.967 544.829 228.751 542.8C229.536 540.77 230.904 539.019 232.684 537.768L249.044 526.263C251.43 524.585 254.385 523.923 257.26 524.424C260.134 524.925 262.691 526.547 264.369 528.933C266.048 531.319 266.709 534.275 266.208 537.149C265.708 540.023 264.086 542.581 261.699 544.259L245.34 555.764C243.496 557.068 241.294 557.768 239.035 557.769Z" fill="#CCCCCC"/>
<path id="Vector_57" d="M281.137 517.141C280.344 516.013 279.336 515.052 278.172 514.314C277.007 513.575 275.709 513.073 274.351 512.837C272.992 512.6 271.6 512.633 270.255 512.934C268.909 513.236 267.636 513.799 266.508 514.592L265.476 515.089L266.174 512.733C266.268 512.418 266.299 512.088 266.265 511.761C266.232 511.434 266.134 511.117 265.977 510.828C265.821 510.539 265.609 510.283 265.353 510.076C265.098 509.869 264.804 509.715 264.489 509.621C264.174 509.528 263.844 509.497 263.517 509.532C263.19 509.566 262.873 509.665 262.584 509.822C262.296 509.979 262.041 510.192 261.834 510.447C261.628 510.703 261.474 510.997 261.381 511.312L259.393 518.017L252.533 521.32C252.045 521.554 251.61 521.886 251.254 522.294C250.898 522.702 250.628 523.177 250.462 523.693C250.295 524.208 250.235 524.751 250.284 525.29C250.334 525.829 250.493 526.353 250.75 526.829L259.316 542.642C259.605 543.176 260.012 543.637 260.506 543.99C261 544.344 261.568 544.58 262.167 544.681C262.766 544.782 263.38 544.745 263.963 544.574C264.545 544.402 265.081 544.1 265.53 543.691L278.589 531.77C280.867 530.168 282.415 527.726 282.893 524.983C283.371 522.24 282.739 519.419 281.137 517.141Z" fill="#FFBCD9"/>
<path id="Vector_58" d="M217.752 432.139C222.17 432.139 225.752 428.558 225.752 424.139C225.752 419.721 222.17 416.139 217.752 416.139C213.334 416.139 209.752 419.721 209.752 424.139C209.752 428.558 213.334 432.139 217.752 432.139Z" fill="#FFBCD9"/>
<path id="Vector_59" d="M202.752 496.139C204.409 496.139 205.752 494.796 205.752 493.139C205.752 491.483 204.409 490.139 202.752 490.139C201.095 490.139 199.752 491.483 199.752 493.139C199.752 494.796 201.095 496.139 202.752 496.139Z" fill="#3F3D56"/>
<path id="Vector_60" d="M191.752 496.139C193.409 496.139 194.752 494.796 194.752 493.139C194.752 491.483 193.409 490.139 191.752 490.139C190.095 490.139 188.752 491.483 188.752 493.139C188.752 494.796 190.095 496.139 191.752 496.139Z" fill="#3F3D56"/>
<path id="Vector_61" d="M292.094 492.071C292.065 492.071 292.037 492.071 292.008 492.07L264.414 490.863C264.096 490.883 263.782 490.791 263.525 490.603C263.268 490.415 263.085 490.144 263.007 489.835C262.93 489.262 263.383 488.758 264.11 488.608L290.493 483.178C290.905 483.093 291.333 483.146 291.71 483.329C291.874 483.403 292.019 483.513 292.133 483.652C292.247 483.79 292.328 483.953 292.368 484.128L293.579 490.765C293.606 490.941 293.585 491.121 293.517 491.286C293.45 491.451 293.339 491.594 293.197 491.701C292.883 491.948 292.493 492.079 292.094 492.071Z" fill="#FF6584"/>
<path id="Vector_62" d="M292.89 495.257C288.755 495.257 284.878 492.625 284.878 494.829C284.878 497.034 288.755 503.24 292.89 503.24C297.025 503.24 300.752 498.887 300.752 496.682C300.752 494.478 297.025 495.257 292.89 495.257Z" fill="white"/>
<path id="Vector_63" d="M200.89 509.257C196.755 509.257 192.878 506.625 192.878 508.829C192.878 511.034 196.755 517.24 200.89 517.24C205.025 517.24 208.752 512.887 208.752 510.682C208.752 508.478 205.025 509.257 200.89 509.257Z" fill="white"/>
<path id="Vector_64" d="M198.802 505.571C198.778 505.571 198.753 505.571 198.728 505.57L174.97 504.43C174.686 504.439 174.408 504.346 174.186 504.169C173.964 503.991 173.813 503.74 173.759 503.46C173.74 503.183 173.828 502.908 174.004 502.693C174.181 502.478 174.433 502.338 174.708 502.302L197.424 497.176C197.779 497.095 198.152 497.146 198.472 497.319C198.617 497.394 198.744 497.5 198.842 497.631C198.94 497.762 199.007 497.913 199.039 498.073L200.081 504.338C200.105 504.501 200.088 504.668 200.031 504.822C199.973 504.977 199.877 505.115 199.752 505.222C199.489 505.452 199.151 505.576 198.802 505.571Z" fill="#FF6584"/>
<path id="Vector_65" d="M478.752 662.139H81.252C69.9842 662.126 59.1815 657.645 51.214 649.677C43.2465 641.71 38.7647 630.907 38.752 619.639C38.752 618.313 39.2787 617.041 40.2164 616.104C41.1541 615.166 42.4259 614.639 43.752 614.639C45.078 614.639 46.3498 615.166 47.2875 616.104C48.2252 617.041 48.752 618.313 48.752 619.639C48.7617 628.256 52.189 636.517 58.2818 642.609C64.3746 648.702 72.6354 652.129 81.252 652.139H478.752C480.078 652.139 481.35 652.666 482.287 653.604C483.225 654.541 483.752 655.813 483.752 657.139C483.752 658.465 483.225 659.737 482.287 660.675C481.35 661.612 480.078 662.139 478.752 662.139Z" fill="#3F3D56"/>
<path id="Vector_66" d="M439.252 616.139H107.252C105.263 616.139 103.355 616.929 101.949 618.336C100.542 619.742 99.752 621.65 99.752 623.639C99.752 625.628 100.542 627.536 101.949 628.943C103.355 630.349 105.263 631.139 107.252 631.139H139.752V649.139C139.752 651.526 140.7 653.815 142.388 655.503C144.076 657.191 146.365 658.139 148.752 658.139C151.139 658.139 153.428 657.191 155.116 655.503C156.804 653.815 157.752 651.526 157.752 649.139V631.139H262.752V649.139C262.752 651.526 263.7 653.815 265.388 655.503C267.076 657.191 269.365 658.139 271.752 658.139C274.139 658.139 276.428 657.191 278.116 655.503C279.804 653.815 280.752 651.526 280.752 649.139V631.139H385.752V649.139C385.752 651.526 386.7 653.815 388.388 655.503C390.076 657.191 392.365 658.139 394.752 658.139C397.139 658.139 399.428 657.191 401.116 655.503C402.804 653.815 403.752 651.526 403.752 649.139V631.139H439.252C441.241 631.139 443.149 630.349 444.555 628.943C445.962 627.536 446.752 625.628 446.752 623.639C446.752 621.65 445.962 619.742 444.555 618.336C443.149 616.929 441.241 616.139 439.252 616.139Z" fill="#3F3D56"/>
</g>
<path id="Vector_67" d="M854 663.139H1C0.734784 663.139 0.480429 663.034 0.292892 662.846C0.105356 662.659 0 662.404 0 662.139C0 661.874 0.105356 661.62 0.292892 661.432C0.480429 661.245 0.734784 661.139 1 661.139H854C854.265 661.139 854.52 661.245 854.707 661.432C854.895 661.62 855 661.874 855 662.139C855 662.404 854.895 662.659 854.707 662.846C854.52 663.034 854.265 663.139 854 663.139Z" fill="#CCCCCC"/>
</g>
<defs>
<clipPath id="clip0_130_15199">
<rect width="855" height="663.139" fill="white"/>
</clipPath>
</defs>
</svg>
