<svg width="68" height="68" viewBox="0 0 68 68" fill="none" xmlns="http://www.w3.org/2000/svg">
<circle cx="34" cy="34" r="34" fill="#FF386B"/>
<g clip-path="url(#clip0_47_11552)">
<path d="M25.7152 49H19.4955V28.9705H25.7152V49ZM22.602 26.2383C20.6132 26.2383 19 24.591 19 22.6021C19 21.6468 19.3795 20.7306 20.055 20.055C20.7305 19.3795 21.6467 19 22.602 19C23.5573 19 24.4735 19.3795 25.149 20.055C25.8245 20.7306 26.204 21.6468 26.204 22.6021C26.204 24.591 24.5902 26.2383 22.602 26.2383ZM48.9933 49H42.7871V39.2498C42.7871 36.9261 42.7402 33.9461 39.5533 33.9461C36.3196 33.9461 35.8241 36.4707 35.8241 39.0824V49H29.6112V28.9705H35.5763V31.7027H35.6634C36.4937 30.129 38.5221 28.4683 41.5482 28.4683C47.8429 28.4683 49 32.6135 49 37.9975V49H48.9933Z" fill="white"/>
</g>
<defs>
<clipPath id="clip0_47_11552">
<rect width="30" height="30" fill="white" transform="translate(19 19)"/>
</clipPath>
</defs>
</svg>
